<svg width="53" height="52" viewBox="0 0 53 52" fill="none" xmlns="http://www.w3.org/2000/svg">
<rect x="0.5" width="52" height="52" rx="26" fill="#EBE5FF"/>
<path d="M35.0695 20.715C35.0695 20.2601 34.8913 19.8236 34.5696 19.5024C34.2479 19.1807 33.8123 19 33.357 19C32.9016 19 32.4661 19.1807 32.1444 19.5024C31.8227 19.8236 31.6445 20.2601 31.6445 20.715C31.6445 21.1693 31.8227 21.6059 32.1444 21.9271C32.4661 22.2488 32.9016 22.4294 33.357 22.4294C33.8123 22.4294 34.2479 22.2488 34.5696 21.9271C34.8913 21.6059 35.0695 21.1693 35.0695 20.715Z" fill="#5B52B6"/>
<path d="M36.0515 19.9746C35.8783 19.9736 35.7051 20.027 35.5566 20.1285C35.4131 20.23 35.2992 20.374 35.2398 20.5403L34.1014 23.7381L31.6861 22.3102C31.3793 22.1286 31.0229 22.0474 30.6666 22.0776C30.3152 22.1083 29.9786 22.2483 29.7064 22.4795L26.2517 25.411L24.46 22.9952C24.2175 22.671 23.8364 22.4785 23.4355 22.476C23.0296 22.4735 22.6485 22.6611 22.401 22.9819L20.2084 25.8584H17.9268C17.6249 25.8599 17.3427 26.0238 17.1893 26.2886C17.0359 26.5529 17.0359 26.878 17.1893 27.1428C17.3427 27.4071 17.6249 27.571 17.9268 27.5724H26.1032C26.7119 27.5724 27.301 27.3552 27.7662 26.9597L31.2209 24.0252L33.6808 25.4798C34.0124 25.6748 34.4083 25.7124 34.7696 25.5813C35.1309 25.4506 35.418 25.165 35.5467 24.8037L36.8583 21.1154C36.9474 20.8541 36.9077 20.5646 36.7494 20.3379C36.591 20.1117 36.3287 19.9766 36.0515 19.9746ZM23.4206 24.4731L24.4501 25.8579H22.3664L23.4206 24.4731Z" fill="#5B52B6"/>
<path d="M15.6797 32.7154C17.1794 30.8762 19.4264 29.8091 21.7972 29.8091C24.168 29.8091 26.415 30.8762 27.9147 32.7154H26.7615C25.44 31.4028 23.6582 30.6664 21.7972 30.6664C19.9362 30.6664 18.1544 31.4028 16.8378 32.7154H15.6797Z" fill="#5B52B6"/>
<path d="M28.4038 28.0525C28.0969 28.2965 27.7208 28.4296 27.3298 28.4296H17.5003C16.5549 28.4296 15.6244 28.6231 14.7583 28.9988C14.5405 29.0938 14.4415 29.3452 14.5355 29.5615C14.6296 29.7778 14.882 29.8778 15.0998 29.7852C15.857 29.4561 16.6737 29.2868 17.5003 29.2868H27.3298C27.9138 29.2868 28.483 29.0869 28.9384 28.7211L32.5613 25.8153L31.7744 25.3491L28.4038 28.0525Z" fill="#5B52B6"/>
<path d="M37.6691 21.3784L37.293 22.446C37.5899 22.3168 37.8918 22.2035 38.2036 22.1055C38.4264 22.0337 38.5501 21.7927 38.4808 21.567C38.4065 21.3413 38.169 21.2166 37.9413 21.2883C37.8522 21.3171 37.7632 21.3473 37.6691 21.3784Z" fill="#5B52B6"/>
</svg>
