<svg width="145" height="48" viewBox="0 0 145 48" fill="none" xmlns="http://www.w3.org/2000/svg">
<g clip-path="url(#clip0_2343_36653)">
<path d="M39.2622 26.3502H47.6594C47.3928 29.2074 46.4598 30.8401 44.3272 32.2006C41.928 33.8333 39.2622 34.3775 34.5971 34.3775C29.9319 34.3775 27.2661 33.6972 25.0002 31.7925C22.7343 29.8877 21.668 27.1666 21.668 23.7652C21.668 20.3638 22.8676 17.6427 25.0002 16.0101C27.3994 14.1053 30.4651 13.425 34.8637 13.425C39.9286 13.425 43.5274 14.5134 45.7934 16.6903C46.993 17.9148 47.5261 19.2753 47.7927 21.5883H39.3954C38.7291 19.2753 37.3962 18.459 34.7304 18.459C31.2648 18.459 29.5321 20.2277 29.5321 23.6292C29.5321 27.3026 31.3981 29.3435 34.7304 29.3435C36.0633 29.3435 37.3962 28.9353 38.0626 28.3911C38.4625 27.9829 38.7291 27.5748 39.2622 26.3502ZM48.0593 33.8333L55.6568 13.9692H65.2537L72.8511 33.8333H64.8538L64.0541 32.0646H56.3233L55.6568 33.8333H48.0593ZM57.6562 26.8945H62.7212L60.322 19.6835L57.6562 26.8945ZM75.3837 33.8333V13.9692H82.5813V28.7992H96.1772V33.8333H75.3837ZM98.5757 33.8333L106.173 13.9692H115.77L123.368 33.8333H115.371L114.57 32.0646H106.84L106.173 33.8333H98.5757ZM108.173 26.8945H113.238L110.839 19.6835L108.173 26.8945Z" fill="#121212"/>
</g>
<defs>
<clipPath id="clip0_2343_36653">
<rect width="144" height="48" fill="white" transform="translate(0.96875)"/>
</clipPath>
</defs>
</svg>
