<svg width="52" height="52" viewBox="0 0 52 52" fill="none" xmlns="http://www.w3.org/2000/svg">
<rect width="52" height="52" rx="26" fill="#FFEAE8"/>
<path d="M35.9803 25.41C35.6403 19.61 30.3703 15.14 24.3003 16.14C20.1203 16.83 16.7703 20.22 16.1203 24.4C15.7403 26.82 16.2403 29.11 17.3303 31L16.4403 34.31C16.2403 35.06 16.9303 35.74 17.6703 35.53L20.9303 34.63C22.4103 35.5 24.1403 36 25.9903 36C31.6303 36 36.3103 31.03 35.9803 25.41ZM30.8803 29.72C30.7903 29.9 30.6803 30.07 30.5403 30.23C30.2903 30.5 30.0203 30.7 29.7203 30.82C29.4203 30.95 29.0903 31.01 28.7403 31.01C28.2303 31.01 27.6803 30.89 27.1103 30.64C26.5303 30.39 25.9603 30.06 25.3903 29.65C24.8103 29.23 24.2703 28.76 23.7503 28.25C23.2303 27.73 22.7703 27.18 22.3503 26.61C21.9403 26.04 21.6103 25.47 21.3703 24.9C21.1303 24.33 21.0103 23.78 21.0103 23.26C21.0103 22.92 21.0703 22.59 21.1903 22.29C21.3103 21.98 21.5003 21.7 21.7703 21.45C22.0903 21.13 22.4403 20.98 22.8103 20.98C22.9503 20.98 23.0903 21.01 23.2203 21.07C23.3503 21.13 23.4703 21.22 23.5603 21.35L24.7203 22.99C24.8103 23.12 24.8803 23.23 24.9203 23.34C24.9703 23.45 24.9903 23.55 24.9903 23.65C24.9903 23.77 24.9503 23.89 24.8803 24.01C24.8103 24.13 24.7203 24.25 24.6003 24.37L24.2203 24.77C24.1603 24.83 24.1403 24.89 24.1403 24.97C24.1403 25.01 24.1503 25.05 24.1603 25.09C24.1803 25.13 24.1903 25.16 24.2003 25.19C24.2903 25.36 24.4503 25.57 24.6703 25.83C24.9003 26.09 25.1403 26.36 25.4003 26.62C25.6703 26.89 25.9303 27.13 26.2003 27.36C26.4603 27.58 26.6803 27.73 26.8503 27.82C26.8803 27.83 26.9103 27.85 26.9403 27.86C26.9803 27.88 27.0203 27.88 27.0703 27.88C27.1603 27.88 27.2203 27.85 27.2803 27.79L27.6603 27.41C27.7903 27.28 27.9103 27.19 28.0203 27.13C28.1403 27.06 28.2503 27.02 28.3803 27.02C28.4803 27.02 28.5803 27.04 28.6903 27.09C28.8003 27.14 28.9203 27.2 29.0403 27.29L30.7003 28.47C30.8303 28.56 30.9203 28.67 30.9803 28.79C31.0303 28.92 31.0603 29.04 31.0603 29.18C31.0003 29.35 30.9603 29.54 30.8803 29.72Z" fill="#FF8679"/>
</svg>
