<svg width="145" height="48" viewBox="0 0 145 48" fill="none" xmlns="http://www.w3.org/2000/svg">
<g clip-path="url(#clip0_2343_36737)">
<mask id="mask0_2343_36737" style="mask-type:luminance" maskUnits="userSpaceOnUse" x="7" y="9" width="131" height="33">
<path d="M137.018 9.59999H7.41797V41.1H137.018V9.59999Z" fill="white"/>
</mask>
<g mask="url(#mask0_2343_36737)">
<path d="M82.5646 19.2132C81.4252 19.2132 80.1994 19.4492 79.2524 20.2597C78.2617 20.9341 77.7922 21.6005 77.5925 21.8627C77.3928 22.1248 77.2474 22.0099 77.3113 21.8627C77.3753 21.7153 78.1992 19.6028 78.1992 19.6028C78.1992 19.6028 78.4064 19.2132 78.1992 18.995C77.9921 18.7767 77.5925 18.995 77.5925 18.995C75.4321 19.9456 73.1236 20.569 70.6819 20.8496C70.6819 20.8496 70.2183 20.8565 70.2183 21.3787C70.2183 21.901 70.6819 21.8627 70.6819 21.8627C71.5846 21.9718 72.1618 22.1744 72.4429 22.4705C72.7092 22.7666 72.8424 23.2343 72.8424 23.8734V36.2017C72.8424 36.9342 72.7685 37.3238 72.2505 37.5888C71.999 37.729 71.7917 37.807 71.6585 37.8536C71.5106 37.8848 71.185 37.9472 70.6819 38.0564C70.6819 38.0564 70.1275 38.0986 70.1638 38.5768C70.2002 39.0551 70.6819 39.1317 70.6819 39.1317H80.3598C80.3598 39.1317 80.8256 39.0743 80.8256 38.596C80.8256 38.1178 80.3598 38.0564 80.3598 38.0564C79.7826 37.9472 79.4274 37.8848 79.2647 37.8536C79.1019 37.807 78.88 37.729 78.584 37.5888C77.9921 37.3238 77.9329 36.9342 77.9329 36.2017V33.365C78.9097 33.6766 79.8862 33.8325 80.848 33.8325C82.6239 33.8325 84.4292 33.1624 85.8793 31.9156C87.3295 30.6843 88.2912 28.5958 88.2912 26.1175C88.2912 23.9823 87.7144 22.2991 86.56 21.0678C85.3911 19.8366 84.0592 19.2132 82.5646 19.2132ZM80.4486 32.3675C79.6198 32.3675 78.9983 31.9934 78.5691 31.2608C78.1401 30.5284 77.9329 29.6088 77.9329 28.5335V24.9019C77.9329 24.294 78.1697 23.6082 78.6433 22.8445C79.1019 22.0809 79.6494 21.7068 80.2711 21.7068C81.0849 21.7068 81.7212 22.2211 82.2094 23.2498C82.6978 24.2785 82.9345 25.6033 82.9345 27.2242C82.9345 30.6531 82.1058 32.3675 80.4486 32.3675Z" fill="#121212"/>
<path d="M118.542 32.3498C118.749 32.3965 119.089 32.4746 119.547 32.5837C119.547 32.5837 120.075 32.6391 120.075 33.2589C120.075 33.8786 119.547 33.9042 119.547 33.9042H110.285C110.285 33.9042 109.831 33.7897 109.831 33.2589C109.831 32.728 110.285 32.6391 110.285 32.6391C110.933 32.6012 111.138 32.4114 111.138 32.4114C111.331 32.3647 111.538 32.2556 111.775 32.1153C112.248 31.8348 112.337 31.4451 112.337 30.7749V24.8296C112.337 24.1906 112.203 23.9827 111.937 23.6865C111.672 23.4076 111.364 22.992 110.439 22.8975C110.439 22.8975 109.795 22.8323 109.795 21.9717C109.795 21.1111 110.427 20.926 110.427 20.926C112.653 20.5459 114.452 20.1334 115.407 19.7955C115.407 19.7955 116.063 19.5003 116.479 19.6388C116.896 19.7774 116.768 20.5372 116.768 20.5372C116.709 21.0719 116.612 21.9071 116.588 22.0483C116.552 22.2587 116.696 22.3876 116.819 22.1439C117.786 20.2308 120.289 19.3472 121.946 19.3472C122.33 19.3472 123.702 19.2803 123.876 19.6388C124.054 19.9972 123.054 20.5369 122.363 21.6465C121.909 22.3779 121.405 23.5021 121.311 23.8273C121.22 24.1526 120.819 23.9323 120.819 23.9323C120.095 23.6179 118.943 23.5597 118.295 24.1891C117.495 24.9657 117.314 26.0286 117.314 27.2287V30.7134C117.314 31.3991 117.447 31.7731 117.891 32.0537C118.114 32.194 118.321 32.3031 118.542 32.3498Z" fill="#121212"/>
<path d="M91.4383 19.8032C91.4383 17.3325 91.7218 15.2041 93.3382 13.2351C94.852 11.3913 96.4441 10.431 98.6248 10.431C99.1711 10.431 100.562 10.5866 100.301 11.2727C100.193 11.5597 99.8479 11.9806 99.7201 12.1718C99.4357 12.6 99.2962 12.6693 98.497 12.7567C95.9176 13.2648 96.3685 17.8199 96.3685 19.6091V21.1298C96.3685 21.7994 97.3162 21.742 97.6618 21.742C98.0065 21.742 98.7571 21.9439 98.7571 22.6641C98.7571 23.3844 98.0614 23.5977 97.7527 23.5977C97.444 23.5977 96.3685 23.4637 96.3685 24.6881V26.3142V30.7303C96.3685 31.3769 96.4234 31.8814 96.8257 32.2446C97.0804 32.474 97.5376 32.5121 97.8436 32.6089C97.8436 32.6089 98.3152 32.7277 98.3152 33.2584C98.3152 33.7892 97.7446 33.8658 97.7446 33.8658L89.1571 33.904C89.1571 33.904 88.6348 33.6745 88.6348 33.1437C88.6348 32.6128 89.1571 32.5523 89.1571 32.5523C89.9756 32.4292 90.5608 32.2444 90.8965 32.0135C91.2331 31.7826 91.4086 31.3516 91.4086 30.7048V24.2863C91.4086 23.2724 90.5599 23.3107 89.8516 23.1959C89.1427 23.0812 88.7251 22.7728 88.7251 22.1414C88.7251 21.5102 89.27 21.2197 89.506 21.2321C89.6868 21.2417 90.505 21.3594 90.7237 21.3756L90.7309 21.3761C90.9523 21.3928 91.4383 21.4291 91.4383 20.8429V19.8032Z" fill="#121212"/>
<path d="M101.64 24.6906V30.4462C101.64 32.2447 101.385 32.5505 100.41 32.6705C100.41 32.6705 99.8965 32.6705 99.8965 33.2586C99.8965 33.8466 100.41 33.904 100.41 33.904H107.56C107.56 33.904 108.142 33.8516 108.142 33.3352C108.142 32.8186 107.779 32.6389 107.779 32.6389L107.776 32.6382C107.449 32.5263 107.173 32.432 106.907 32.2298C106.64 32.0272 106.633 31.4292 106.633 30.7747C106.633 30.7747 106.635 25.3408 106.635 24.5757C106.635 23.8105 106.835 23.3909 107.343 23.3131C107.852 23.2352 108.137 22.9497 108.11 22.4254C108.083 21.901 107.833 21.4382 107.27 21.5149C106.708 21.5913 105.527 21.9095 104.237 22.0052C102.947 22.1012 101.912 22.1575 101.222 22.1461C100.532 22.1347 100.048 22.4534 100.048 22.9884C100.048 23.5234 100.365 23.7722 100.676 23.7914C100.985 23.8105 101.64 23.7914 101.64 24.6906Z" fill="#121212"/>
<path fill-rule="evenodd" clip-rule="evenodd" d="M51.9381 32.4689C51.9038 32.4475 51.8702 32.4265 51.8232 32.404C51.468 32.2326 51.1721 31.7337 51.1721 30.8454V23.6916C51.9268 22.7408 52.7259 22.2577 53.5545 22.2577C54.1464 22.2577 54.5755 22.4446 54.8272 22.8187C55.0786 23.1927 55.1971 23.8942 55.1971 24.9383V30.8454C55.1971 31.5155 55.0935 31.9052 54.6792 32.1858C54.4571 32.3261 54.2796 32.4352 54.1464 32.482C53.9985 32.5286 53.9419 32.5508 53.6512 32.6656C53.6512 32.6656 53.311 32.7856 53.311 33.2613C53.311 33.7368 53.7601 33.8067 53.7601 33.8067H61.7702C61.7702 33.8067 62.2062 33.7368 62.2062 33.2586C62.2062 32.7803 61.9033 32.7158 61.9033 32.7158C61.9033 32.7158 61.2435 32.4742 60.7908 32.1858C60.338 31.8972 60.258 31.5311 60.258 30.8454V23.598C61.0868 22.7097 61.9006 22.2577 62.7144 22.2577C63.839 22.2577 64.3866 22.8967 64.3866 24.9383V30.8454C64.3866 31.3909 64.3555 31.6247 64.0758 32.0143C63.8157 32.3768 63.3329 32.5624 63.15 32.6326C63.1364 32.6379 63.1244 32.6424 63.1143 32.6464C63.0918 32.6553 63.0633 32.663 63.0309 32.6717C62.8547 32.7188 62.5693 32.7953 62.5693 33.2586C62.5693 33.8067 63.1143 33.8067 63.1143 33.8067H71.1788C71.1788 33.8067 71.7601 33.7942 71.7601 33.2777C71.7601 32.7612 71.1788 32.7038 71.1788 32.7038C70.7492 32.6032 70.5602 32.5206 70.4022 32.4515C70.3643 32.4349 70.3282 32.419 70.2909 32.404C69.8766 32.2326 69.4475 31.7337 69.4475 30.8454V24.3928C69.4475 22.8967 69.1516 21.6964 68.5596 20.8081C67.9528 19.9197 66.8282 19.4679 65.1709 19.4679C63.9427 19.4679 62.9512 19.7327 62.2261 20.2471C61.4862 20.777 60.7759 21.5406 60.1099 22.538H60.0508C59.5032 20.4965 58.0974 19.4679 55.8631 19.4679C54.546 19.4679 53.6212 19.7359 52.7111 20.4497C52.2043 20.7739 51.8349 21.0333 51.5885 21.228C51.3421 21.4228 50.6786 21.999 50.6029 22.0715C50.5273 22.1439 50.291 22.2577 50.373 22.0066C50.4549 21.7556 50.836 20.3459 50.836 20.3459C50.836 20.3459 51.072 19.6529 50.7269 19.3702C50.3999 19.1024 49.8369 19.4679 49.8369 19.4679C48.4015 20.2626 46.8364 20.6524 44.069 21.1043C44.069 21.1043 43.5804 21.139 43.5804 21.6052C43.5804 22.0715 44.069 22.1174 44.069 22.1174C44.8977 22.0707 45.4453 22.1952 45.6969 22.4602C45.9484 22.7252 46.0816 23.1771 46.0816 23.8161V30.8454C46.0816 31.5155 45.9633 31.9052 45.5637 32.1858C45.3565 32.3261 44.5618 32.4846 43.2683 32.4846C41.9748 32.4846 41.2971 31.3817 41.2836 30.3622C41.2702 29.3428 41.2836 24.2059 41.2836 24.2059C41.2836 22.6939 40.8546 21.4784 39.9815 20.5899C39.1083 19.7016 37.8949 19.2495 36.3412 19.2495C35.3793 19.2495 34.2843 19.421 33.0709 19.7483C31.8575 20.0755 30.7772 20.5743 29.8154 21.2446C28.8534 21.9148 28.3799 22.6473 28.3799 23.4109C28.3799 23.8317 28.5278 24.2215 28.8238 24.58C29.105 24.9383 29.5046 25.1254 30.0077 25.1254C30.644 25.1254 31.1766 24.8605 31.6354 24.3462C32.0941 23.8317 32.5233 22.8967 32.9524 21.5562C33.13 21.0264 33.3964 20.7613 33.7368 20.7613C34.5802 20.7613 35.2165 20.9485 35.6161 21.3225C36.0157 21.7121 36.2227 22.4758 36.2227 23.6291V24.3304C36.2227 24.6309 35.335 25.1097 34.9798 25.2656C34.8022 25.3436 34.5802 25.4371 34.2991 25.5151C34.1132 25.5665 33.979 25.6113 33.8924 25.6402C33.848 25.655 33.8161 25.6657 33.796 25.6709C33.6628 25.7176 33.4408 25.7799 33.1596 25.858C32.677 26.0122 32.2546 26.1454 31.8894 26.2604C31.6278 26.343 31.3955 26.4163 31.1916 26.4814C30.7031 26.6527 30.1852 26.8554 29.6377 27.1204C29.0755 27.3853 28.6463 27.6658 28.365 27.9308C27.7732 28.4919 27.3145 29.3647 27.3145 30.4246C27.3145 31.5936 27.7141 32.4507 28.5131 32.9961C29.2974 33.5417 30.2296 33.8067 31.3098 33.8067C33.1893 33.8222 34.8318 32.9961 36.2227 31.3286C36.2821 31.9676 36.6076 32.5286 37.2143 33.043C37.8062 33.5574 38.4277 33.8067 39.0788 33.8067L42.1567 33.8074C42.3801 33.807 42.5913 33.807 42.8896 33.8072C43.0763 33.8072 43.2971 33.8074 43.5763 33.8074H44.069L52.4162 33.8067C52.4162 33.8067 52.7612 33.7368 52.7612 33.2586C52.7612 32.7803 52.4162 32.6656 52.4162 32.6656C52.1112 32.577 52.0224 32.5215 51.9381 32.4689ZM32.7963 30.881C33.0627 31.333 33.4623 31.5512 33.9801 31.5512C34.6756 31.5512 35.4154 30.9902 36.2295 29.8837V26.3456L34.2909 26.8599C33.0922 27.2339 32.382 28.2782 32.382 29.3537C32.382 29.9303 32.5151 30.4291 32.7963 30.881Z" fill="#121212"/>
<path d="M14.8746 27.7686C16.3528 30.4285 17.8293 31.3267 20.9774 31.3267C22.3396 31.3267 23.5565 30.8677 24.6646 30.3446C25.7725 29.8216 26.4445 30.454 26.4263 31.1391C26.4082 31.8241 25.9724 32.2642 25.5001 32.6086C25.0278 32.9528 23.3413 33.9288 19.8456 33.9288C16.3499 33.9288 13.5221 32.9469 11.4069 30.9832C9.29161 29.0428 8.09961 26.3777 8.09961 23.0113C8.09961 19.5279 9.33607 16.8395 11.585 14.8992C13.8116 12.9587 16.6001 11.7468 20.2241 12.0003C23.0062 12.1949 24.247 12.8426 25.7166 14.0114C27.1861 15.1804 27.688 16.946 27.7493 17.5148C27.8794 18.7199 27.8446 19.5626 26.5174 19.8505C24.423 20.3046 23.7615 18.6827 23.4991 17.7744C23.2366 16.8661 21.6511 14.4681 19.6184 14.271C15.3681 13.8586 14.0618 17.4583 13.7667 19.8505C13.4714 22.2425 13.3961 25.1085 14.8746 27.7686Z" fill="#121212"/>
<path d="M132.852 31.081C130.499 31.081 128.99 29.3977 128.531 26.5456H136.581C137.336 24.8467 137.115 23.2102 135.929 21.6204C134.746 20.0307 133 19.2358 130.706 19.2358C128.664 19.2358 126.903 19.8905 125.438 21.1842C123.959 22.4777 123.219 24.2701 123.219 26.5456C123.219 28.7744 123.914 30.5512 125.319 31.876C126.712 33.2007 128.531 33.8553 130.795 33.8553C132.275 33.8553 133.547 33.5592 134.597 32.9514C135.649 32.3591 136.344 31.5487 136.714 30.5356C136.714 30.5356 136.823 30.1511 136.581 29.8966C136.339 29.6419 136.004 29.8966 136.004 29.8966C135.752 30.2394 135.308 30.52 134.702 30.7382C134.094 30.9719 133.473 31.081 132.852 31.081ZM130.499 20.6854C131.225 20.6854 131.712 21.1373 131.964 22.0413C132.201 22.9609 132.185 23.9896 131.92 25.1429H128.397V24.8623C128.397 22.0569 129.197 20.6854 130.499 20.6854Z" fill="#121212"/>
<path fill-rule="evenodd" clip-rule="evenodd" d="M105.199 20.6131C106.716 20.1163 107.817 18.6281 107.817 16.8694C107.817 14.3211 104.834 10.4007 104.089 10.4007C103.343 10.4007 100.361 13.9291 100.361 16.8694C100.361 18.6283 101.462 20.1165 102.979 20.6132C102.572 20.2624 102.312 19.7227 102.312 19.1173C102.312 17.6814 103.734 15.9581 104.09 15.9581C104.445 15.9581 105.868 17.8728 105.868 19.1173C105.868 19.7227 105.607 20.2623 105.199 20.6131Z" fill="#121212"/>
</g>
</g>
<defs>
<clipPath id="clip0_2343_36737">
<rect width="144" height="48" fill="white" transform="translate(0.21875)"/>
</clipPath>
</defs>
</svg>
