<svg width="16" height="17" viewBox="0 0 16 17" fill="none" xmlns="http://www.w3.org/2000/svg">
<path d="M13.1938 3.31338C11.2204 1.34671 8.02042 1.34671 6.06042 3.31338C4.68042 4.68005 4.26709 6.64671 4.80042 8.38005L1.66709 11.5134C1.44709 11.74 1.29376 12.1867 1.34042 12.5067L1.54042 13.96C1.61376 14.44 2.06042 14.8934 2.54042 14.96L3.99376 15.16C4.31376 15.2067 4.76042 15.06 4.98709 14.8267L5.53376 14.28C5.66709 14.1534 5.66709 13.94 5.53376 13.8067L4.24042 12.5134C4.04709 12.32 4.04709 12 4.24042 11.8067C4.43376 11.6134 4.75376 11.6134 4.94709 11.8067L6.24709 13.1067C6.37376 13.2334 6.58709 13.2334 6.71376 13.1067L8.12709 11.7C9.85376 12.24 11.8204 11.82 13.1938 10.4534C15.1604 8.48671 15.1604 5.28005 13.1938 3.31338ZM9.66709 8.50005C8.74709 8.50005 8.00042 7.75338 8.00042 6.83338C8.00042 5.91338 8.74709 5.16671 9.66709 5.16671C10.5871 5.16671 11.3338 5.91338 11.3338 6.83338C11.3338 7.75338 10.5871 8.50005 9.66709 8.50005Z" fill="#5B52B6"/>
</svg>
