<svg width="53" height="52" viewBox="0 0 53 52" fill="none" xmlns="http://www.w3.org/2000/svg">
<rect x="0.5" width="52" height="52" rx="26" fill="#FFEAE8"/>
<path fill-rule="evenodd" clip-rule="evenodd" d="M21.9107 20.2222L21.973 19.1777L25.6913 19.4703L25.5452 23.1675L24.5007 23.1254L24.584 21.1412L18.9865 26.1334L18.2969 25.3399L23.8743 20.3683L21.9107 20.2222ZM33.1062 21.5799C33.1062 22.8024 32.1152 23.7939 30.8922 23.7939C29.6698 23.7939 28.6782 22.8024 28.6782 21.5799C28.6782 20.357 29.6698 19.3654 30.8922 19.3654C32.1152 19.3654 33.1062 20.357 33.1062 21.5799ZM34.2346 27.4911C34.2135 25.6531 32.7303 24.1699 30.8922 24.1699C29.0542 24.1699 27.571 25.6531 27.5499 27.4911C27.5293 27.5539 27.5293 27.5955 27.5293 27.6583V31.0423C27.5293 31.481 27.9053 31.8569 28.3439 31.8569H33.4194C33.8792 31.8569 34.2341 31.5015 34.2341 31.0423L34.2346 27.6583C34.2551 27.5955 34.2551 27.5328 34.2346 27.4911ZM26.527 25.4232H21.8897V31.8775H26.527V25.4232ZM16.25 28.64H20.8873V31.8564H16.25V28.64Z" fill="#FF8679"/>
</svg>
