<svg width="43" height="42" viewBox="0 0 43 42" fill="none" xmlns="http://www.w3.org/2000/svg">
<path d="M31.9167 0.166656H11.0834C5.33341 0.166656 0.666748 4.81249 0.666748 10.5417V23V25.0833C0.666748 30.8125 5.33341 35.4583 11.0834 35.4583H14.2084C14.7709 35.4583 15.5209 35.8333 15.8751 36.2917L19.0001 40.4375C20.3751 42.2708 22.6251 42.2708 24.0001 40.4375L27.1251 36.2917C27.5209 35.7708 28.1459 35.4583 28.7917 35.4583H31.9167C37.6667 35.4583 42.3334 30.8125 42.3334 25.0833V10.5417C42.3334 4.81249 37.6667 0.166656 31.9167 0.166656ZM23.5834 24.6458H11.0834C10.2292 24.6458 9.52091 23.9375 9.52091 23.0833C9.52091 22.2292 10.2292 21.5208 11.0834 21.5208H23.5834C24.4376 21.5208 25.1459 22.2292 25.1459 23.0833C25.1459 23.9375 24.4376 24.6458 23.5834 24.6458ZM31.9167 14.2292H11.0834C10.2292 14.2292 9.52091 13.5208 9.52091 12.6667C9.52091 11.8125 10.2292 11.1042 11.0834 11.1042H31.9167C32.7709 11.1042 33.4792 11.8125 33.4792 12.6667C33.4792 13.5208 32.7709 14.2292 31.9167 14.2292Z" fill="white"/>
</svg>
