<svg width="24" height="24" viewBox="0 0 24 24" fill="none" xmlns="http://www.w3.org/2000/svg">
<circle cx="12" cy="12" r="12" fill="#5B52B6"/>
<path d="M12 7C10.69 7 9.625 8.065 9.625 9.375C9.625 10.66 10.63 11.7 11.94 11.745C11.98 11.74 12.02 11.74 12.05 11.745C12.06 11.745 12.065 11.745 12.075 11.745C12.08 11.745 12.08 11.745 12.085 11.745C13.365 11.7 14.37 10.66 14.375 9.375C14.375 8.065 13.31 7 12 7Z" fill="white"/>
<path d="M14.5405 13.0749C13.1455 12.1449 10.8705 12.1449 9.46547 13.0749C8.83047 13.4999 8.48047 14.0749 8.48047 14.6899C8.48047 15.3049 8.83047 15.8749 9.46047 16.2949C10.1605 16.7649 11.0805 16.9999 12.0005 16.9999C12.9205 16.9999 13.8405 16.7649 14.5405 16.2949C15.1705 15.8699 15.5205 15.2999 15.5205 14.6799C15.5155 14.0649 15.1705 13.4949 14.5405 13.0749Z" fill="white"/>
</svg>
