<svg width="48" height="48" viewBox="0 0 48 48" fill="none" xmlns="http://www.w3.org/2000/svg">
<circle cx="24" cy="24" r="24" fill="#5B52B6"/>
<path d="M34 25.478V30C34 30.7956 33.6839 31.5587 33.1213 32.1213C32.5587 32.6839 31.7956 33 31 33H17C16.2044 33 15.4413 32.6839 14.8787 32.1213C14.3161 31.5587 14 30.7956 14 30V25.478L14.553 25.755C17.4839 27.2312 20.72 28 24.0017 27.9996C27.2834 27.9993 30.5194 27.2298 33.45 25.753L34 25.478ZM26 14C26.7956 14 27.5587 14.3161 28.1213 14.8787C28.6839 15.4413 29 16.2044 29 17V18H31C31.7956 18 32.5587 18.3161 33.1213 18.8787C33.6839 19.4413 34 20.2044 34 21V23.242L32.553 23.966C29.964 25.2711 27.1107 25.9664 24.2116 25.9986C21.3124 26.0309 18.4444 25.3992 15.827 24.152L15.18 23.832L14 23.242V21C14 20.2044 14.3161 19.4413 14.8787 18.8787C15.4413 18.3161 16.2044 18 17 18H19V17C19 16.2044 19.3161 15.4413 19.8787 14.8787C20.4413 14.3161 21.2044 14 22 14H26ZM24 22C23.7348 22 23.4804 22.1054 23.2929 22.2929C23.1054 22.4804 23 22.7348 23 23C22.9993 23.1313 23.0246 23.2615 23.0742 23.3831C23.1239 23.5046 23.197 23.6152 23.2894 23.7086C23.3818 23.8019 23.4916 23.8761 23.6127 23.927C23.7338 23.9778 23.8637 24.0043 23.995 24.005C24.1263 24.0057 24.2565 23.9804 24.3781 23.9308C24.4996 23.8811 24.6102 23.808 24.7036 23.7156C24.7969 23.6232 24.8711 23.5134 24.922 23.3923C24.9728 23.2712 24.9993 23.1413 25 23.01C25 22.448 24.552 22 24 22ZM26 16H22C21.7348 16 21.4804 16.1054 21.2929 16.2929C21.1054 16.4804 21 16.7348 21 17V18H27V17C27 16.7348 26.8946 16.4804 26.7071 16.2929C26.5196 16.1054 26.2652 16 26 16Z" fill="white"/>
</svg>
