<svg width="24" height="24" viewBox="0 0 24 24" fill="none" xmlns="http://www.w3.org/2000/svg">
<circle cx="12" cy="12" r="12" fill="#CFCDEC"/>
<path d="M17 12.739V15C17 15.3978 16.842 15.7794 16.5607 16.0607C16.2794 16.342 15.8978 16.5 15.5 16.5H8.5C8.10218 16.5 7.72064 16.342 7.43934 16.0607C7.15804 15.7794 7 15.3978 7 15V12.739L7.2765 12.8775C8.74196 13.6156 10.36 14 12.0009 13.9998C13.6417 13.9996 15.2597 13.6149 16.725 12.8765L17 12.739ZM13 7C13.3978 7 13.7794 7.15804 14.0607 7.43934C14.342 7.72064 14.5 8.10218 14.5 8.5V9H15.5C15.8978 9 16.2794 9.15804 16.5607 9.43934C16.842 9.72064 17 10.1022 17 10.5V11.621L16.2765 11.983C14.982 12.6356 13.5554 12.9832 12.1058 12.9993C10.6562 13.0154 9.22218 12.6996 7.9135 12.076L7.59 11.916L7 11.621V10.5C7 10.1022 7.15804 9.72064 7.43934 9.43934C7.72064 9.15804 8.10218 9 8.5 9H9.5V8.5C9.5 8.10218 9.65804 7.72064 9.93934 7.43934C10.2206 7.15804 10.6022 7 11 7H13ZM12 11C11.8674 11 11.7402 11.0527 11.6464 11.1464C11.5527 11.2402 11.5 11.3674 11.5 11.5C11.4997 11.5657 11.5123 11.6307 11.5371 11.6915C11.5619 11.7523 11.5985 11.8076 11.6447 11.8543C11.6909 11.9009 11.7458 11.9381 11.8063 11.9635C11.8669 11.9889 11.9318 12.0022 11.9975 12.0025C12.0632 12.0028 12.1282 11.9902 12.189 11.9654C12.2498 11.9406 12.3051 11.904 12.3518 11.8578C12.3984 11.8116 12.4356 11.7567 12.461 11.6962C12.4864 11.6356 12.4997 11.5707 12.5 11.505C12.5 11.224 12.276 11 12 11ZM13 8H11C10.8674 8 10.7402 8.05268 10.6464 8.14645C10.5527 8.24021 10.5 8.36739 10.5 8.5V9H13.5V8.5C13.5 8.36739 13.4473 8.24021 13.3536 8.14645C13.2598 8.05268 13.1326 8 13 8Z" fill="white"/>
</svg>
