<svg width="74" height="38" viewBox="0 0 74 38" fill="none" xmlns="http://www.w3.org/2000/svg">
<g clip-path="url(#clip0_623_187)">
<path d="M4.37368 35.1061C3.47859 35.1061 2.70783 34.8948 2.06137 34.4721C1.41492 34.0494 0.917653 33.4672 0.569564 32.7255C0.221475 31.9837 0.04743 31.1363 0.04743 30.1832C0.04743 29.2135 0.225618 28.3578 0.581995 27.616C0.942516 26.8701 1.44393 26.2879 2.08624 25.8693C2.73269 25.4467 3.48688 25.2353 4.34882 25.2353C5.02013 25.2353 5.62514 25.3596 6.16385 25.6083C6.70256 25.8569 7.14389 26.205 7.48783 26.6525C7.83178 27.1001 8.04519 27.6222 8.12807 28.2189H6.66112C6.54924 27.7838 6.3006 27.3984 5.91522 27.0628C5.53398 26.723 5.02013 26.5531 4.37368 26.5531C3.80182 26.5531 3.30041 26.7023 2.86944 27.0006C2.44261 27.2948 2.10903 27.7113 1.86868 28.25C1.63248 28.7846 1.51438 29.4124 1.51438 30.1334C1.51438 30.8711 1.63041 31.5134 1.86247 32.0604C2.09867 32.6074 2.43018 33.0321 2.85701 33.3346C3.28797 33.6371 3.79353 33.7884 4.37368 33.7884C4.75492 33.7884 5.10094 33.7221 5.41173 33.5895C5.72253 33.4569 5.98566 33.2662 6.20115 33.0176C6.41663 32.769 6.56996 32.4706 6.66112 32.1225H8.12807C8.04519 32.6861 7.84007 33.1937 7.5127 33.6454C7.18947 34.0929 6.76058 34.4493 6.22601 34.7145C5.69559 34.9756 5.07815 35.1061 4.37368 35.1061ZM14.1513 35.1061C13.2893 35.1061 12.5331 34.901 11.8825 34.4908C11.236 34.0805 10.7304 33.5066 10.3658 32.769C10.0053 32.0313 9.825 31.1694 9.825 30.1832C9.825 29.1886 10.0053 28.3205 10.3658 27.5787C10.7304 26.8369 11.236 26.2609 11.8825 25.8507C12.5331 25.4404 13.2893 25.2353 14.1513 25.2353C15.0132 25.2353 15.7674 25.4404 16.4138 25.8507C17.0644 26.2609 17.57 26.8369 17.9305 27.5787C18.2952 28.3205 18.4775 29.1886 18.4775 30.1832C18.4775 31.1694 18.2952 32.0313 17.9305 32.769C17.57 33.5066 17.0644 34.0805 16.4138 34.4908C15.7674 34.901 15.0132 35.1061 14.1513 35.1061ZM14.1513 33.7884C14.806 33.7884 15.3447 33.6205 15.7674 33.2849C16.1901 32.9492 16.5029 32.5079 16.706 31.9609C16.909 31.4139 17.0106 30.8213 17.0106 30.1832C17.0106 29.545 16.909 28.9503 16.706 28.3992C16.5029 27.8481 16.1901 27.4026 15.7674 27.0628C15.3447 26.723 14.806 26.5531 14.1513 26.5531C13.4965 26.5531 12.9578 26.723 12.5351 27.0628C12.1124 27.4026 11.7996 27.8481 11.5965 28.3992C11.3935 28.9503 11.292 29.545 11.292 30.1832C11.292 30.8213 11.3935 31.4139 11.5965 31.9609C11.7996 32.5079 12.1124 32.9492 12.5351 33.2849C12.9578 33.6205 13.4965 33.7884 14.1513 33.7884ZM22.1837 29.1638V34.9072H20.7168V25.3596H22.134V26.8515H22.2583C22.4821 26.3666 22.8219 25.9771 23.2777 25.6829C23.7335 25.3845 24.322 25.2353 25.043 25.2353C25.6895 25.2353 26.2551 25.3679 26.74 25.6331C27.2248 25.8942 27.6019 26.292 27.8712 26.8266C28.1406 27.357 28.2753 28.0283 28.2753 28.8405V34.9072H26.8083V28.94C26.8083 28.1899 26.6136 27.6056 26.224 27.1871C25.8345 26.7644 25.2999 26.5531 24.6203 26.5531C24.1521 26.5531 23.7335 26.6546 23.3647 26.8577C23.0001 27.0607 22.7121 27.357 22.5007 27.7465C22.2894 28.1361 22.1837 28.6085 22.1837 29.1638ZM37.7187 27.4979L36.401 27.8709C36.3181 27.6512 36.1959 27.4378 36.0342 27.2306C35.8768 27.0193 35.6613 26.8452 35.3878 26.7085C35.1143 26.5717 34.7641 26.5034 34.3373 26.5034C33.753 26.5034 33.2661 26.638 32.8766 26.9074C32.4912 27.1726 32.2985 27.5103 32.2985 27.9206C32.2985 28.2852 32.4311 28.5732 32.6963 28.7846C32.9615 28.9959 33.3759 29.172 33.9395 29.3129L35.3567 29.661C36.2104 29.8682 36.8465 30.1852 37.265 30.6121C37.6835 31.0347 37.8928 31.5797 37.8928 32.2468C37.8928 32.7938 37.7353 33.2828 37.4204 33.7138C37.1096 34.1447 36.6745 34.4845 36.1151 34.7332C35.5556 34.9818 34.905 35.1061 34.1633 35.1061C33.1894 35.1061 32.3835 34.8948 31.7453 34.4721C31.1071 34.0494 30.7031 33.432 30.5332 32.6198L31.9256 32.2717C32.0582 32.7855 32.3089 33.1709 32.6777 33.4278C33.0506 33.6848 33.5375 33.8132 34.1384 33.8132C34.8222 33.8132 35.365 33.6682 35.767 33.3781C36.1731 33.0839 36.3761 32.7317 36.3761 32.3214C36.3761 31.9899 36.2601 31.7123 36.028 31.4885C35.796 31.2606 35.4396 31.0907 34.9589 30.9788L33.3676 30.6058C32.4933 30.3986 31.851 30.0775 31.4407 29.6424C31.0346 29.2031 30.8316 28.6541 30.8316 27.9952C30.8316 27.4565 30.9828 26.9799 31.2853 26.5655C31.592 26.1511 32.0084 25.8258 32.5347 25.5896C33.0651 25.3534 33.666 25.2353 34.3373 25.2353C35.2821 25.2353 36.0239 25.4425 36.5626 25.8569C37.1055 26.2713 37.4908 26.8183 37.7187 27.4979ZM46.118 31.0037V25.3596H47.5849V34.9072H46.118V33.2911H46.0185C45.7947 33.7759 45.4466 34.1883 44.9742 34.5281C44.5018 34.8637 43.9051 35.0315 43.1841 35.0315C42.5873 35.0315 42.0569 34.901 41.5928 34.6399C41.1287 34.3747 40.764 33.9769 40.4988 33.4465C40.2336 32.9119 40.101 32.2385 40.101 31.4263V25.3596H41.5679V31.3269C41.5679 32.0231 41.7627 32.5783 42.1522 32.9927C42.5459 33.4071 43.0473 33.6143 43.6565 33.6143C44.0211 33.6143 44.392 33.5211 44.7691 33.3346C45.1503 33.1481 45.4694 32.8622 45.7264 32.4768C45.9874 32.0914 46.118 31.6004 46.118 31.0037ZM51.7387 22.1771V34.9072H50.2717V22.1771H51.7387ZM58.5777 25.3596V26.6028H53.6298V25.3596H58.5777ZM55.0719 23.0722H56.5389V32.1722C56.5389 32.5866 56.599 32.8974 56.7191 33.1046C56.8434 33.3077 57.0009 33.4444 57.1915 33.5149C57.3863 33.5812 57.5914 33.6143 57.8069 33.6143C57.9685 33.6143 58.1011 33.606 58.2047 33.5895C58.3083 33.5687 58.3912 33.5522 58.4534 33.5397L58.7517 34.8575C58.6523 34.8948 58.5134 34.9321 58.3353 34.9694C58.1571 35.0108 57.9312 35.0315 57.6577 35.0315C57.2433 35.0315 56.8372 34.9424 56.4394 34.7643C56.0457 34.5861 55.7184 34.3146 55.4573 33.95C55.2004 33.5853 55.0719 33.1253 55.0719 32.5701V23.0722ZM60.7843 34.9072V25.3596H62.2513V34.9072H60.7843ZM61.5302 23.7684C61.2443 23.7684 60.9977 23.671 60.7905 23.4762C60.5875 23.2815 60.4859 23.0473 60.4859 22.7738C60.4859 22.5003 60.5875 22.2662 60.7905 22.0714C60.9977 21.8767 61.2443 21.7793 61.5302 21.7793C61.8161 21.7793 62.0606 21.8767 62.2637 22.0714C62.4709 22.2662 62.5745 22.5003 62.5745 22.7738C62.5745 23.0473 62.4709 23.2815 62.2637 23.4762C62.0606 23.671 61.8161 23.7684 61.5302 23.7684ZM67.7476 35.131C67.1426 35.131 66.5936 35.017 66.1004 34.7891C65.6073 34.5571 65.2157 34.2235 64.9256 33.7884C64.6356 33.3491 64.4905 32.8187 64.4905 32.1971C64.4905 31.6501 64.5983 31.2067 64.8138 30.8669C65.0292 30.523 65.3172 30.2536 65.6778 30.0588C66.0383 29.8641 66.4361 29.719 66.8712 29.6237C67.3105 29.5243 67.7518 29.4455 68.1952 29.3875C68.7753 29.3129 69.2457 29.257 69.6062 29.2197C69.9709 29.1783 70.2361 29.1099 70.4018 29.0146C70.5717 28.9193 70.6567 28.7535 70.6567 28.5173V28.4676C70.6567 27.8543 70.4889 27.3777 70.1532 27.0379C69.8217 26.6981 69.3182 26.5282 68.6427 26.5282C67.9424 26.5282 67.3933 26.6815 66.9955 26.9882C66.5977 27.2948 66.318 27.6222 66.1564 27.9703L64.764 27.473C65.0127 26.8929 65.3442 26.4412 65.7586 26.118C66.1771 25.7906 66.6329 25.5627 67.1261 25.4342C67.6233 25.3016 68.1123 25.2353 68.593 25.2353C68.8997 25.2353 69.2519 25.2726 69.6497 25.3472C70.0517 25.4177 70.4391 25.5648 70.8121 25.7885C71.1892 26.0123 71.502 26.35 71.7507 26.8017C71.9993 27.2534 72.1236 27.8584 72.1236 28.6168V34.9072H70.6567V33.6143H70.5821C70.4826 33.8215 70.3169 34.0432 70.0848 34.2794C69.8528 34.5156 69.544 34.7166 69.1587 34.8824C68.7733 35.0481 68.3029 35.131 67.7476 35.131ZM67.9714 33.8132C68.5516 33.8132 69.0406 33.6993 69.4384 33.4714C69.8403 33.2434 70.1428 32.9492 70.3459 32.5887C70.5531 32.2282 70.6567 31.849 70.6567 31.4512V30.1086C70.5945 30.1832 70.4578 30.2515 70.2464 30.3137C70.0392 30.3717 69.7989 30.4235 69.5254 30.4691C69.256 30.5105 68.9929 30.5478 68.736 30.581C68.4832 30.61 68.2781 30.6348 68.1206 30.6556C67.7394 30.7053 67.383 30.7861 67.0515 30.898C66.7241 31.0057 66.4589 31.1694 66.2558 31.389C66.0569 31.6045 65.9575 31.8987 65.9575 32.2717C65.9575 32.7814 66.146 33.1668 66.5231 33.4278C66.9044 33.6848 67.3871 33.8132 67.9714 33.8132Z" fill="#3A3285"/>
<path d="M49.7228 21.3821C49.2125 5.52734 26.5151 2.22503 22.1305 17.9453L21.6691 21.3821H9.11426C9.42897 0.207296 38.1548 -7.93849 49.0689 10.9696C50.8991 14.139 51.857 17.733 51.9594 21.3821H49.7228Z" fill="#3A3285"/>
<path d="M48.3636 21.3821C48.1604 13.1707 35.9737 13.0103 35.7675 21.3821H28.9492C29.0623 9.65299 46.5945 8.08279 48.2658 20.1159L48.359 21.3821H48.3621H48.3636Z" fill="#3A3285"/>
</g>
<defs>
<clipPath id="clip0_623_187">
<rect width="73.93" height="37.28" fill="white" transform="translate(0 0.359985)"/>
</clipPath>
</defs>
</svg>
