<svg width="145" height="48" viewBox="0 0 145 48" fill="none" xmlns="http://www.w3.org/2000/svg">
<g clip-path="url(#clip0_2343_36713)">
<mask id="mask0_2343_36713" style="mask-type:luminance" maskUnits="userSpaceOnUse" x="9" y="12" width="127" height="23">
<path d="M135.594 12.3H9.59375V34.8H135.594V12.3Z" fill="white"/>
</mask>
<g mask="url(#mask0_2343_36713)">
<path d="M15.0046 17.7404C19.0686 16.2594 23.301 18.1695 24.8241 22.3515C24.9251 22.6291 25.0681 23.1507 25.127 23.4369C25.2279 23.8408 25.0176 24.2278 24.6642 24.354L14.0369 28.2247C14.9204 30.2946 17.5121 31.6914 20.0531 30.7742C21.4584 30.2609 22.5186 29.1671 23.116 28.3761C23.4862 27.9301 23.705 27.6777 24.1594 27.9554L25.7918 29.0408C26.1788 29.2512 26.406 29.5205 26.0862 30.0842C25.3121 31.4726 23.6292 33.1891 21.0123 34.1399C16.2919 35.865 11.8155 33.2901 10.1747 28.7968C8.56754 24.3792 10.3177 19.4485 15.0046 17.7404ZM20.9282 22.932C20.1289 21.0978 17.9832 20.0628 16.0647 20.7612C13.9527 21.5269 12.8672 23.6473 13.3469 25.6919L20.9282 22.932Z" fill="#121212"/>
<path d="M33.7601 17.7404C37.8242 16.2594 42.0566 18.1695 43.5797 22.3515C43.6806 22.6291 43.8237 23.1507 43.8826 23.4369C43.9835 23.8408 43.7732 24.2278 43.4198 24.354L32.7925 28.2247C33.676 30.2946 36.2677 31.6914 38.8087 30.7742C40.2139 30.2609 41.2742 29.1671 41.8715 28.3761C42.2418 27.9301 42.4606 27.6777 42.9149 27.9554L44.5473 29.0408C44.9343 29.2512 45.1616 29.5205 44.8418 30.0843C44.0677 31.4726 42.3848 33.1891 39.7679 34.1399C35.0392 35.865 30.5627 33.2901 28.9219 28.7883C27.3232 24.3792 29.0733 19.4485 33.7601 17.7404ZM39.6838 22.932C38.8845 21.0977 36.7388 20.0628 34.8203 20.7612C32.7083 21.5269 31.6229 23.6473 32.1026 25.6919L39.6838 22.932Z" fill="#121212"/>
<path d="M52.5249 17.7404C56.5891 16.2594 60.8215 18.1695 62.3446 22.3515C62.4455 22.6291 62.5885 23.1507 62.6474 23.4369C62.7484 23.8408 62.5381 24.2278 62.1846 24.354L51.5573 28.2247C52.4409 30.2946 55.0324 31.6914 57.5736 30.7742C58.9787 30.2609 60.0389 29.1671 60.6364 28.3761C61.0066 27.9301 61.2254 27.6777 61.6797 27.9554L63.3121 29.0408C63.6992 29.2512 63.9264 29.5205 63.6067 30.0843C62.8325 31.4726 61.1497 33.1891 58.5328 34.1399C53.8039 35.865 49.3275 33.2901 47.6867 28.7883C46.0879 24.3792 47.8297 19.4485 52.5249 17.7404ZM58.4402 22.932C57.6409 21.0977 55.4952 20.0628 53.5768 20.7612C51.4647 21.5269 50.3792 23.6473 50.8589 25.6919L58.4402 22.932Z" fill="#121212"/>
<path d="M78.4568 18.7038C78.2048 18.1653 78.4568 17.7445 79.0373 17.7445H81.2839C81.5786 17.7445 81.9488 17.9549 82.0331 18.241L84.8181 27.4294H84.8603L89.3114 17.7361C89.3957 17.5258 89.6815 17.3238 90.0184 17.3238H90.2704C90.6407 17.3238 90.8927 17.5342 90.9773 17.7361L95.3864 27.4716H95.4287L98.1719 18.241C98.3825 17.7445 99.0053 17.7445 99.4589 17.7445H101.083C101.664 17.7445 101.958 18.1568 101.705 18.7038L96.8417 34.3798C96.758 34.6321 96.4718 34.7921 96.0938 34.7921H95.9256C95.588 34.7921 95.3027 34.6238 95.2181 34.4218L90.1023 23.3148H90.0601L84.9863 34.4303C84.9025 34.6406 84.6499 34.8004 84.322 34.8004H84.1116C83.7746 34.8004 83.4889 34.6321 83.4046 34.3882L78.4568 18.7038Z" fill="#121212"/>
<path d="M109.136 17.7404C113.201 16.2594 117.433 18.1695 118.956 22.3515C119.057 22.6291 119.2 23.1507 119.259 23.4369C119.36 23.8408 119.15 24.2278 118.796 24.354L108.169 28.2247C109.053 30.2946 111.644 31.6914 114.185 30.7742C115.59 30.2609 116.65 29.1671 117.248 28.3761C117.618 27.9301 117.837 27.6777 118.291 27.9554L119.924 29.0408C120.311 29.2512 120.538 29.5205 120.219 30.0843C119.444 31.4726 117.762 33.1891 115.144 34.1399C110.415 35.865 105.939 33.2901 104.298 28.7883C102.699 24.3792 104.441 19.4485 109.136 17.7404ZM115.052 22.932C114.253 21.0977 112.106 20.0628 110.188 20.7612C108.076 21.5269 106.991 23.6473 107.47 25.6919L115.052 22.932Z" fill="#121212"/>
<path d="M123.281 13.1151C123.281 12.7028 123.651 12.3242 124.072 12.3242H126.446C126.858 12.3242 127.236 12.6944 127.236 13.1151V33.5956C127.236 34.008 126.866 34.3866 126.446 34.3866H124.072C123.66 34.3866 123.281 34.0164 123.281 33.5956V13.1151Z" fill="#121212"/>
<path d="M74.0745 17.7525H72.3494V13.1162C72.3494 12.9984 72.3156 12.8806 72.2571 12.7712C72.1389 12.5019 71.8779 12.3 71.5753 12.3L70.3299 12.3252H69.1859C68.7735 12.3252 68.3949 12.6954 68.3949 13.1162V17.7525H66.6697C66.2152 17.7525 65.8789 18.0891 65.8789 18.5435V20.4114C65.8789 20.8237 66.2152 21.2024 66.6697 21.2024H68.3949V33.5968C68.3949 34.0091 68.7651 34.3877 69.1859 34.3877H71.5584C71.9707 34.3877 72.3494 34.0174 72.3494 33.5968V21.2024H74.0745C74.529 21.2024 74.8654 20.8322 74.8654 20.4114V18.535C74.8654 18.0806 74.5369 17.7525 74.0745 17.7525Z" fill="#121212"/>
<path d="M131.113 13.1151C131.113 12.7028 131.484 12.3242 131.904 12.3242H134.278C134.69 12.3242 135.069 12.6944 135.069 13.1151V33.5956C135.069 34.008 134.699 34.3866 134.278 34.3866H131.904C131.492 34.3866 131.113 34.0164 131.113 33.5956V13.1151Z" fill="#121212"/>
</g>
</g>
<defs>
<clipPath id="clip0_2343_36713">
<rect width="144" height="48" fill="white" transform="translate(0.59375)"/>
</clipPath>
</defs>
</svg>
