<svg width="16" height="17" viewBox="0 0 16 17" fill="none" xmlns="http://www.w3.org/2000/svg">
<path d="M11.333 2.12H4.66634C2.66634 2.12 1.33301 3.45333 1.33301 5.45333V9.45333C1.33301 11.4533 2.66634 12.7867 4.66634 12.7867V14.2067C4.66634 14.74 5.25967 15.06 5.69967 14.76L8.66634 12.7867H11.333C13.333 12.7867 14.6663 11.4533 14.6663 9.45333V5.45333C14.6663 3.45333 13.333 2.12 11.333 2.12ZM7.99967 10.2333C7.71967 10.2333 7.49967 10.0067 7.49967 9.73333C7.49967 9.45999 7.71967 9.23333 7.99967 9.23333C8.27967 9.23333 8.49967 9.45999 8.49967 9.73333C8.49967 10.0067 8.27967 10.2333 7.99967 10.2333ZM8.83967 7.46666C8.57967 7.63999 8.49967 7.75333 8.49967 7.93999V8.07999C8.49967 8.35333 8.27301 8.57999 7.99967 8.57999C7.72634 8.57999 7.49967 8.35333 7.49967 8.07999V7.93999C7.49967 7.16666 8.06634 6.78666 8.27967 6.63999C8.52634 6.47333 8.60634 6.35999 8.60634 6.18666C8.60634 5.85333 8.33301 5.57999 7.99967 5.57999C7.66634 5.57999 7.39301 5.85333 7.39301 6.18666C7.39301 6.45999 7.16634 6.68666 6.89301 6.68666C6.61967 6.68666 6.39301 6.45999 6.39301 6.18666C6.39301 5.29999 7.11301 4.57999 7.99967 4.57999C8.88634 4.57999 9.60634 5.29999 9.60634 6.18666C9.60634 6.94666 9.04634 7.32666 8.83967 7.46666Z" fill="#5B52B6"/>
</svg>
