<svg width="52" height="52" viewBox="0 0 52 52" fill="none" xmlns="http://www.w3.org/2000/svg">
<rect width="52" height="52" rx="26" fill="#FFEAE8"/>
<path d="M27.1301 29.72C27.1301 30.3441 26.6242 30.85 26.0001 30.85C25.376 30.85 24.8701 30.3441 24.8701 29.72C24.8701 29.0959 25.376 28.59 26.0001 28.59C26.6242 28.59 27.1301 29.0959 27.1301 29.72Z" fill="#FF8679" stroke="#FF8679"/>
<path d="M31.78 23.53V23.9714L32.218 24.0261C33.545 24.192 34.3125 24.5957 34.7793 25.2677C35.2678 25.9709 35.5 27.0662 35.5 28.79V30.65C35.5 32.6824 35.182 33.8359 34.5089 34.5089C33.8359 35.182 32.6824 35.5 30.65 35.5H21.35C19.3176 35.5 18.1641 35.182 17.4911 34.5089C16.818 33.8359 16.5 32.6824 16.5 30.65V28.79C16.5 27.0662 16.7322 25.9709 17.2207 25.2677C17.6875 24.5957 18.455 24.192 19.782 24.0261L20.22 23.9714V23.53V22.28C20.22 20.9511 20.3848 19.5148 21.1578 18.415C21.9053 17.3515 23.2985 16.5 26 16.5C28.7015 16.5 30.0947 17.3515 30.8422 18.415C31.6152 19.5148 31.78 20.9511 31.78 22.28V23.53ZM20.62 23.44V23.94H20.85V23.95H21.35H30.65H30.6505H30.6509H30.6514H30.6519H30.6523H30.6528H30.6533H30.6537H30.6542H30.6547H30.6551H30.6556H30.6561H30.6565H30.657H30.6575H30.6579H30.6584H30.6589H30.6593H30.6598H30.6603H30.6607H30.6612H30.6616H30.6621H30.6626H30.663H30.6635H30.664H30.6644H30.6649H30.6653H30.6658H30.6663H30.6667H30.6672H30.6677H30.6681H30.6686H30.669H30.6695H30.67H30.6704H30.6709H30.6713H30.6718H30.6723H30.6727H30.6732H30.6736H30.6741H30.6745H30.675H30.6755H30.6759H30.6764H30.6768H30.6773H30.6777H30.6782H30.6787H30.6791H30.6796H30.68H30.6805H30.6809H30.6814H30.6818H30.6823H30.6828H30.6832H30.6837H30.6841H30.6846H30.685H30.6855H30.6859H30.6864H30.6868H30.6873H30.6877H30.6882H30.6887H30.6891H30.6896H30.69H30.6905H30.6909H30.6914H30.6918H30.6923H30.6927H30.6932H30.6936H30.6941H30.6945H30.695H30.6954H30.6959H30.6963H30.6968H30.6972H30.6977H30.6981H30.6986H30.699H30.6995H30.6999H30.7004H30.7008H30.7013H30.7017H30.7022H30.7026H30.7031H30.7035H30.704H30.7044H30.7049H30.7053H30.7058H30.7062H30.7066H30.7071H30.7075H30.708H30.7084H30.7089H30.7093H30.7098H30.7102H30.7107H30.7111H30.7116H30.712H30.7125H30.7129H30.7133H30.7138H30.7142H30.7147H30.7151H30.7156H30.716H30.7165H30.7169H30.7174H30.7178H30.7182H30.7187H30.7191H30.7196H30.72H30.7205H30.7209H30.7213H30.7218H30.7222H30.7227H30.7231H30.7236H30.724H30.7245H30.7249H30.7253H30.7258H30.7262H30.7267H30.7271H30.7276H30.728H30.7284H30.7289H30.7293H30.7298H30.7302H30.7307H30.7311H30.7315H30.732H30.7324H30.7329H30.7333H30.7337H30.7342H30.7346H30.7351H30.7355H30.736H30.7364H30.7368H30.7373H30.7377H30.7382H30.7386H30.739H30.7395H30.7399H30.7404H30.7408H30.7412H30.7417H30.7421H30.7426H30.743H30.7434H30.7439H30.7443H30.7448H30.7452H30.7457H30.7461H30.7465H30.747H30.7474H30.7479H30.7483H30.7487H30.7492H30.7496H30.7501H30.7505H30.7509H30.7514H30.7518H30.7523H30.7527H30.7531H30.7536H30.754H30.7545H30.7549H30.7553H30.7558H30.7562H30.7566H30.7571H30.7575H30.758H30.7584H30.7588H30.7593H30.7597H30.7602H30.7606H30.761H30.7615H30.7619H30.7624H30.7628H30.7632H30.7637H30.7641H30.7646H30.765H30.7654H30.7659H30.7663H30.7668H30.7672H30.7676H30.7681H30.7685H30.769H30.7694H30.7698H30.7703H30.7707H30.7712H30.7716H30.772H30.7725H30.7729H30.7733H30.7738H30.7742H30.7747H30.7751H30.7755H30.776H30.7764H30.7769H30.7773H30.7777H30.7782H30.7786H30.7791H30.7795H30.7799H30.7804H30.7808H30.7813H30.7817H30.7821H30.7826H30.783H30.7835H30.7839H30.7843H30.7848H30.7852H30.7857H30.7861H30.7866H30.787H30.7874H30.7879H30.7883H30.7888H30.7892H30.7896H30.7901H30.7905H30.791H30.7914H30.7918H30.7923H30.7927H30.7932H30.7936H30.794H30.7945H30.7949H30.7954H30.7958H30.7963H30.7967H30.7971H30.7976H30.798H30.7985H30.7989H30.7993H30.7998H30.8002H30.8007H30.8011H30.8016H30.802H30.8024H30.8029H30.8033H30.8038H30.8042H30.8047H30.8051H30.8055H30.806H30.8064H30.8069H30.8073H30.8078H30.8082H30.8087H30.8091H30.8095H30.81H30.8104H30.8109H30.8113H30.8118H30.8122H30.8126H30.8131H30.8135H30.814H30.8144H30.8149H30.8153H30.8158H30.8162H30.8167H30.8171H30.8175H30.818H30.8184H30.8189H30.8193H30.8198H30.8202H30.8207H30.8211H30.8216H30.822H30.8225H30.8229H30.8233H30.8238H30.8242H30.8247H30.8251H30.8256H30.826H30.8265H30.8269H30.8274H30.8278H30.8283H30.8287H30.8292H30.8296H30.8301H30.8305H30.831H30.8314H30.8319H30.8323H30.8328H30.8332H30.8337H30.8341H30.8346H30.835H30.8355H30.8359H30.8364H30.8368H30.8373H30.8377H30.8382H30.8386H30.8391H30.8395H30.84H30.8404H30.8409H30.8413H30.8418H30.8422H30.8427H30.8432H30.8436H30.8441H30.8445H30.845H30.8454H30.8459H30.8463H30.8468H30.8472H30.8477H30.8482H30.8486H30.8491H30.8495H30.85H30.8504H30.8509H30.8513H30.8518H30.8523H30.8527H30.8532H30.8536H30.8541H30.8545H30.855H30.8555H30.8559H30.8564H30.8568H30.8573H30.8577H30.8582H30.8587H30.8591H30.8596H30.86H30.8605H30.861H30.8614H30.8619H30.8623H30.8628H30.8633H30.8637H30.8642H30.8646H30.8651H30.8656H30.866H30.8665H30.867H30.8674H30.8679H30.8684H30.8688H30.8693H30.8697H30.8702H30.8707H30.8711H30.8716H30.8721H30.8725H30.873H30.8735H30.8739H30.8744H30.8749H30.8753H30.8758H30.8763H30.8767H30.8772H30.8777H30.8781H30.8786H30.8791H30.8795H30.88H31.38V23.45V22.28C31.38 20.7923 31.1753 19.4169 30.3424 18.4206C29.4923 17.4038 28.0938 16.9 26 16.9C23.9062 16.9 22.5077 17.4038 21.6576 18.4206C20.8247 19.4169 20.62 20.7923 20.62 22.28V23.44ZM22.48 29.72C22.48 31.6551 24.0528 33.24 26 33.24C27.9461 33.24 29.52 31.6661 29.52 29.72C29.52 27.7839 27.9361 26.2 26 26.2C24.0649 26.2 22.48 27.7728 22.48 29.72Z" fill="#FF8679" stroke="#FF8679"/>
</svg>
