<svg width="52" height="52" viewBox="0 0 52 52" fill="none" xmlns="http://www.w3.org/2000/svg">
<rect width="52" height="52" rx="26" fill="#E4F2FF"/>
<path d="M23.5729 22.391L23.5729 22.391L23.5703 22.3934V16.5H28.4303V22.4C28.4303 22.4002 28.4303 22.4003 28.4303 22.4005C28.4294 22.4008 28.4286 22.401 28.428 22.4011C28.4276 22.4008 28.4272 22.4005 28.4267 22.4001L26.6811 20.7941C26.2993 20.4355 25.7022 20.4353 25.3202 20.7935L23.5729 22.391Z" fill="#399AF9" stroke="#399AF9"/>
<path d="M30.9303 16.5608C30.9308 16.5599 30.9313 16.5589 30.932 16.5579C32.217 16.7214 33.0861 17.2268 33.6433 17.9531C34.2103 18.6922 34.5 19.7198 34.5 21V31C34.5 32.4233 34.1441 33.5331 33.4461 34.2848C32.7543 35.0297 31.6547 35.5 30 35.5H22C20.3453 35.5 19.2457 35.0297 18.5539 34.2848C17.8559 33.5331 17.5 32.4233 17.5 31V21C17.5 19.7198 17.7897 18.6922 18.3567 17.9531C18.9139 17.2268 19.783 16.7214 21.068 16.5579C21.0687 16.5589 21.0692 16.5599 21.0697 16.5608C21.0698 16.5611 21.0699 16.5614 21.07 16.5616V22.58C21.07 23.5391 21.6378 24.4076 22.5175 24.7972L22.5186 24.7977C22.8359 24.9372 23.1649 25 23.49 25C24.0781 25 24.6723 24.7876 25.1307 24.356L25.9955 23.5608C25.9974 23.5591 25.9991 23.5579 26.0005 23.557L26.0016 23.558L26.8698 24.3564C26.8701 24.3567 26.8705 24.3571 26.8709 24.3574C27.5796 25.0146 28.6005 25.1752 29.477 24.7996L29.477 24.7996L29.4825 24.7972C30.3622 24.4076 30.93 23.5391 30.93 22.58V16.5616C30.9301 16.5614 30.9302 16.5611 30.9303 16.5608ZM23 33.25H31.5C32.1861 33.25 32.75 32.6861 32.75 32C32.75 31.3139 32.1861 30.75 31.5 30.75H23C22.3139 30.75 21.75 31.3139 21.75 32C21.75 32.6861 22.3139 33.25 23 33.25ZM27.25 29.25H31.5C32.1861 29.25 32.75 28.6861 32.75 28C32.75 27.3139 32.1861 26.75 31.5 26.75H27.25C26.5639 26.75 26 27.3139 26 28C26 28.6861 26.5639 29.25 27.25 29.25Z" fill="#399AF9" stroke="#399AF9"/>
</svg>
