<svg width="52" height="52" viewBox="0 0 52 52" fill="none" xmlns="http://www.w3.org/2000/svg">
<rect width="52" height="52" rx="26" fill="#DFFFF2"/>
<path d="M35 36.25H18C16.2061 36.25 14.75 34.7939 14.75 33V16C14.75 15.8661 14.8661 15.75 15 15.75C15.1339 15.75 15.25 15.8661 15.25 16V33C15.25 34.5161 16.4839 35.75 18 35.75H35C35.1339 35.75 35.25 35.8661 35.25 36C35.25 36.1339 35.1339 36.25 35 36.25Z" fill="#23E697" stroke="#23E697"/>
<path d="M17.9998 31.75C17.8298 31.75 17.6498 31.69 17.5098 31.57C17.1998 31.3 17.1598 30.83 17.4298 30.51L22.0198 25.15C22.5198 24.57 23.2398 24.22 23.9998 24.19C24.7598 24.17 25.5098 24.45 26.0498 24.99L26.9998 25.94C27.2498 26.19 27.5698 26.31 27.9298 26.31C28.2798 26.3 28.5998 26.14 28.8298 25.87L33.4198 20.51C33.6898 20.2 34.1598 20.16 34.4798 20.43C34.7898 20.7 34.8298 21.17 34.5598 21.49L29.9698 26.85C29.4698 27.43 28.7498 27.78 27.9898 27.81C27.2198 27.83 26.4798 27.55 25.9398 27.01L24.9998 26.06C24.7498 25.81 24.4198 25.68 24.0698 25.69C23.7198 25.7 23.3998 25.86 23.1698 26.13L18.5798 31.49C18.4198 31.66 18.2098 31.75 17.9998 31.75Z" fill="#23E697"/>
</svg>
