<svg width="52" height="52" viewBox="0 0 52 52" fill="none" xmlns="http://www.w3.org/2000/svg">
<rect width="52" height="52" rx="26" fill="#EBE5FF"/>
<path d="M30.8104 19.49V20.23L27.2704 18.18C25.9304 17.41 24.0604 17.41 22.7304 18.18L19.1904 20.24V19.49C19.1904 17.24 20.4204 16 22.6704 16H27.3304C29.5804 16 30.8104 17.24 30.8104 19.49Z" fill="#5B52B6"/>
<path d="M30.84 21.97L30.7 21.9L29.34 21.12L26.52 19.49C25.66 18.99 24.34 18.99 23.48 19.49L20.66 21.11L19.3 21.91L19.12 22C17.37 23.18 17.25 23.4 17.25 25.29V29.81C17.25 31.7 17.37 31.92 19.16 33.13L23.48 35.62C23.91 35.88 24.45 35.99 25 35.99C25.54 35.99 26.09 35.87 26.52 35.62L30.88 33.1C32.64 31.92 32.75 31.71 32.75 29.81V25.29C32.75 23.4 32.63 23.18 30.84 21.97ZM27.79 27.5L27.18 28.25C27.08 28.36 27.01 28.57 27.02 28.72L27.08 29.68C27.12 30.27 26.7 30.57 26.15 30.36L25.26 30C25.12 29.95 24.89 29.95 24.75 30L23.86 30.35C23.31 30.57 22.89 30.26 22.93 29.67L22.99 28.71C23 28.56 22.93 28.35 22.83 28.24L22.21 27.5C21.83 27.05 22 26.55 22.57 26.4L23.5 26.16C23.65 26.12 23.82 25.98 23.9 25.86L24.42 25.06C24.74 24.56 25.25 24.56 25.58 25.06L26.1 25.86C26.18 25.99 26.36 26.12 26.5 26.16L27.43 26.4C28 26.55 28.17 27.05 27.79 27.5Z" fill="#5B52B6"/>
</svg>
