<svg width="52" height="52" viewBox="0 0 52 52" fill="none" xmlns="http://www.w3.org/2000/svg">
<rect width="52" height="52" rx="26" fill="#DDFDFC"/>
<path d="M30.55 21.2688C30.4668 21.2604 30.3833 21.2604 30.3001 21.2688C29.0378 21.2092 28.04 20.1689 28.04 18.89C28.04 17.575 29.1073 16.5 30.43 16.5C31.7445 16.5 32.8192 17.5664 32.82 18.8884C32.811 20.1696 31.8112 21.2093 30.55 21.2688Z" fill="#12D5D5" stroke="#12D5D5"/>
<path d="M33.5116 28.2844L33.5114 28.2846C32.6713 28.8471 31.5179 29.1265 30.3654 29.0953C30.6059 28.3888 30.7315 27.6354 30.7396 26.8552L30.7396 26.8552V26.85C30.7396 26.0324 30.6025 25.241 30.3348 24.5104C31.5031 24.4746 32.6557 24.7542 33.5031 25.3166L33.5031 25.3166L33.5047 25.3177C34.1903 25.7689 34.465 26.3151 34.4659 26.7972C34.4667 27.2798 34.1934 27.8284 33.5116 28.2844Z" fill="#12D5D5" stroke="#12D5D5"/>
<path d="M19.6701 21.2688C19.5869 21.2604 19.5034 21.2604 19.4202 21.2688C18.1579 21.2092 17.1602 20.1689 17.1602 18.89C17.1602 17.565 18.2274 16.5 19.5402 16.5C20.864 16.5 21.9302 17.5661 21.9302 18.89C21.9302 20.1689 20.9324 21.2092 19.6701 21.2688Z" fill="#12D5D5" stroke="#12D5D5"/>
<path d="M16.4569 25.3164L16.4569 25.3164L16.4593 25.3148C17.2495 24.7831 18.3387 24.5016 19.4465 24.5072C19.1863 25.2383 19.0501 26.0275 19.0501 26.85C19.0501 27.6388 19.1794 28.3978 19.4195 29.1077C18.3274 29.1065 17.2599 28.8211 16.4558 28.2929C15.7698 27.8366 15.4951 27.288 15.4951 26.805C15.4951 26.3217 15.7701 25.7729 16.4569 25.3164Z" fill="#12D5D5" stroke="#12D5D5"/>
<path d="M25.137 29.369C25.0407 29.3601 24.9415 29.3606 24.8447 29.3691C23.2896 29.3019 22.0505 28.0204 22.0498 26.4413C22.0591 24.8146 23.3678 23.5 24.9998 23.5C26.6232 23.5 27.9391 24.8154 27.9398 26.4386C27.9306 28.0207 26.6994 29.3009 25.137 29.369Z" fill="#12D5D5" stroke="#12D5D5"/>
<path d="M21.8698 31.94C20.3598 32.95 20.3598 34.61 21.8698 35.61C23.5898 36.76 26.4098 36.76 28.1298 35.61C29.6398 34.6 29.6398 32.94 28.1298 31.94C26.4198 30.79 23.5998 30.79 21.8698 31.94Z" fill="#12D5D5"/>
</svg>
