<svg width="145" height="48" viewBox="0 0 145 48" fill="none" xmlns="http://www.w3.org/2000/svg">
<g clip-path="url(#clip0_2343_36728)">
<mask id="mask0_2343_36728" style="mask-type:luminance" maskUnits="userSpaceOnUse" x="3" y="10" width="139" height="28">
<path d="M141.705 10.5H3.10547V37.5H141.705V10.5Z" fill="white"/>
</mask>
<g mask="url(#mask0_2343_36728)">
<path d="M24.5756 10.5H6.1658C4.46828 10.5 3.10547 11.8348 3.10547 13.4975V34.527C3.10547 36.1897 4.46828 37.5245 6.1658 37.5245H27.636C29.3335 37.5245 30.6962 36.1897 30.6962 34.527V16.4951L24.5756 10.5ZM12.3104 13.4975H21.5152V18.0173H12.3104V13.4975ZM27.6598 34.5504H6.1658V13.4975H9.22613V21.0147H24.5756V14.7621L27.6598 17.7596V34.5504ZM9.25004 24.0356H24.5995V27.0332H9.25004V24.0356ZM9.25004 28.5319H24.5995V31.5295H9.25004V28.5319Z" fill="#121212"/>
<path d="M60.6062 13.6848V35.0421C60.6062 35.37 60.4388 35.5105 60.128 35.5105H57.498C57.1633 35.5105 57.0198 35.3466 57.0198 35.0421V13.6848C57.0198 13.357 57.1872 13.2165 57.498 13.2165H60.128C60.4388 13.193 60.6062 13.357 60.6062 13.6848ZM45.5675 12.3734H43.5831C40.1641 12.3734 38.2992 14.1532 38.2992 17.7362V19.5861H36.5778C36.2431 19.5861 36.0996 19.7501 36.0996 20.0545V22.2793C36.0996 22.6071 36.267 22.7477 36.5778 22.7477H38.2992V35.0187C38.2992 35.3466 38.4666 35.4871 38.7774 35.4871H41.4074C41.7421 35.4871 41.8855 35.3232 41.8855 35.0187V22.7711H45.2089C45.5436 22.7711 45.687 22.6071 45.687 22.3027V20.078C45.687 19.7501 45.5197 19.6096 45.2089 19.6096H41.8855V17.7362C41.8855 16.331 42.5072 15.6988 43.5352 15.6988H45.5197C45.8544 15.6988 45.9979 15.5349 45.9979 15.2304V12.8417C46.0696 12.5373 45.9022 12.3734 45.5675 12.3734ZM52.2859 19.5861H49.656C49.3212 19.5861 49.1778 19.7501 49.1778 20.0545V35.0421C49.1778 35.37 49.3451 35.5105 49.656 35.5105H52.2859C52.6206 35.5105 52.7641 35.3466 52.7641 35.0421V20.0545C52.7641 19.7267 52.5967 19.5861 52.2859 19.5861ZM52.2859 13.193H49.656C49.3212 13.193 49.1778 13.357 49.1778 13.6614V16.1905C49.1778 16.5184 49.3451 16.6589 49.656 16.6589H52.2859C52.6206 16.6589 52.7641 16.495 52.7641 16.1905V13.6848C52.7641 13.357 52.5967 13.193 52.2859 13.193ZM109.954 35.2295C109.978 35.3466 110.025 35.5105 109.858 35.5105H106.87C106.511 35.5105 106.272 35.1827 106.272 34.7377V33.6604C105.531 34.7845 104.455 35.6744 102.781 35.6744H101.777C98.7403 35.6744 96.5407 33.8946 96.5407 30.7098C96.5407 27.5249 98.3344 26.0964 101.706 26.0964H106.272V24.785C106.272 23.0989 105.651 22.654 103.953 22.654H103.068C101.419 22.654 100.175 23.0754 99.4819 23.3565C98.9563 23.5438 98.5972 23.5438 98.4064 23.0989L97.7125 21.5299C97.5928 21.202 97.5451 20.9444 97.8799 20.7571C99.2425 19.9374 101.275 19.4456 103.044 19.4456H103.929C107.97 19.4456 109.858 21.202 109.858 24.9255V34.7377C109.882 34.9016 109.906 35.1124 109.954 35.2295ZM106.272 28.8597H101.777C100.797 28.8597 100.127 29.2813 100.127 30.6864C100.127 32.0212 100.821 32.513 101.777 32.513H103.499C105.268 32.513 105.866 31.8105 106.272 30.9908V28.8597ZM119.303 25.8622C117.079 25.6046 116.839 24.9724 116.839 24.0356C116.839 23.1457 117.533 22.6306 118.753 22.6306H119.828C121.167 22.6306 121.55 23.216 121.837 23.942C122.004 24.3869 122.291 24.5274 122.673 24.5274H125.017C125.375 24.5274 125.471 24.34 125.471 24.0122C125.471 21.1786 123.152 19.4925 119.876 19.4925H118.728C115.381 19.4925 113.206 20.8742 113.206 24.1058C113.206 27.3844 114.759 28.6256 119.303 28.9768C121.837 29.211 122.172 29.5623 122.172 30.9206C122.172 31.9744 121.55 32.513 120.163 32.513H118.753C117.509 32.513 117.126 32.0914 116.768 31.3889C116.672 31.1313 116.481 31.0376 115.979 31.0376H113.612C113.277 31.0376 113.086 31.2249 113.134 31.506C113.469 34.2225 115.381 35.651 118.872 35.651H120.02C123.702 35.651 125.805 34.2225 125.805 30.8972C125.757 27.2205 123.654 26.2838 119.303 25.8622ZM76.9359 25.2533V27.9933C76.9359 28.6022 76.6011 28.9534 75.9557 28.9534H67.731V30.3585C67.731 31.8339 68.5678 32.4895 69.8349 32.4895H71.4368C73.2539 32.4895 73.6843 32.1383 74.3777 31.3655C74.5689 31.1313 74.7602 31.1313 75.0949 31.3655L76.4338 32.2319C76.7685 32.4661 76.7925 32.6769 76.6011 32.9345C75.4296 34.3396 74.3538 35.6744 71.4608 35.6744H69.8589C66.2726 35.6744 64.0252 33.0516 64.0252 29.6794V25.2533C64.0252 21.8109 66.2726 19.4456 69.8589 19.4456H71.4608C74.4972 19.4456 76.9359 21.647 76.9359 25.2533ZM73.3257 24.785C73.3257 23.2628 72.5845 22.654 71.4368 22.654H69.8349C68.5678 22.654 67.731 23.2628 67.731 24.8319V26.2135H73.3257V24.785ZM132.237 28.9534V30.3585C132.237 31.8339 133.074 32.4895 134.341 32.4895H135.943C137.76 32.4895 138.19 32.1383 138.884 31.3655C139.075 31.1313 139.266 31.1313 139.601 31.3655L140.94 32.2319C141.274 32.4661 141.299 32.6769 141.107 32.9345C139.936 34.3396 138.86 35.6744 135.967 35.6744H134.365C130.779 35.6744 128.531 33.0516 128.531 29.6794V25.2533C128.531 21.8109 130.779 19.4456 134.365 19.4456H135.967C139.027 19.4456 141.466 21.647 141.466 25.2533V27.9933C141.466 28.6022 141.131 28.9534 140.486 28.9534H132.237ZM132.237 26.1667H137.832V24.7616C137.832 23.2394 137.09 22.6306 135.943 22.6306H134.365C133.098 22.6306 132.261 23.2394 132.261 24.8084V26.1667H132.237ZM93.7678 25.2299V29.9838C93.7678 33.356 91.6159 35.6978 88.0296 35.6978H87.2167C85.5669 35.6978 84.5389 34.9719 83.9651 33.9649V35.0421C83.9651 35.37 83.726 35.5105 83.5108 35.5105H80.833C80.4983 35.5105 80.3549 35.3466 80.3549 35.0421V13.6848C80.3549 13.357 80.5223 13.2165 80.833 13.2165H83.5108C83.7499 13.2165 83.9651 13.3804 83.9651 13.6848V21.0381C84.5628 20.1248 85.5669 19.4456 87.2167 19.4456H88.0296C91.6159 19.4456 93.7678 21.8109 93.7678 25.2299ZM90.1575 24.785C90.1575 23.2628 89.3207 22.654 88.0057 22.654H86.093C84.8258 22.654 83.989 23.2628 83.989 24.785V30.3585C83.989 31.8339 84.8258 32.4895 86.093 32.4895H88.0057C89.2967 32.4895 90.1575 31.8105 90.1575 30.3585V24.785Z" fill="#121212"/>
</g>
</g>
<defs>
<clipPath id="clip0_2343_36728">
<rect width="144" height="48" fill="white" transform="translate(0.40625)"/>
</clipPath>
</defs>
</svg>
