<svg width="32" height="32" viewBox="0 0 32 32" fill="none" xmlns="http://www.w3.org/2000/svg">
<g clip-path="url(#clip0_2332_36565)">
<path d="M15.7767 31.9742C24.4899 31.9742 31.5534 24.8165 31.5534 15.9871C31.5534 7.15766 24.4899 0 15.7767 0C7.06347 0 0 7.15766 0 15.9871C0 24.8165 7.06347 31.9742 15.7767 31.9742Z" fill="url(#paint0_linear_2332_36565)"/>
<path d="M23.6003 13.0608C23.7716 13.2496 23.9226 13.4541 24.0526 13.6743C24.1827 13.8945 24.2898 14.1258 24.3727 14.3686C24.4562 14.6113 24.5145 14.8604 24.5472 15.115C24.58 15.3703 24.5875 15.6256 24.569 15.8822L24.5639 15.9449L24.5528 16.0064C24.4031 16.8745 24.1758 17.7212 23.8725 18.5466C23.5699 19.3727 23.1953 20.163 22.7497 20.9188C22.3034 21.6746 21.7941 22.3828 21.2202 23.0433C20.647 23.7038 20.0193 24.3053 19.3372 24.8485L15.7372 27.7187L12.1379 24.8485C11.7157 24.5122 11.314 24.1522 10.9327 23.7696C10.5508 23.387 10.1918 22.9831 9.85507 22.5591C9.51834 22.1351 9.20577 21.6929 8.91855 21.2325C8.63135 20.7727 8.37013 20.2972 8.13553 19.8068C7.90095 19.3168 7.6942 18.8145 7.51594 18.3007C7.33705 17.7865 7.18789 17.2639 7.0678 16.7327C6.9471 16.2015 6.85673 15.6651 6.79607 15.1232C6.73541 14.5818 6.70508 14.0387 6.70508 13.4936V11.0807C6.7057 10.9402 6.7125 10.7997 6.72612 10.6592C6.73973 10.5193 6.76078 10.38 6.78739 10.2421C6.81464 10.1034 6.84867 9.96732 6.88891 9.83247C6.92915 9.69761 6.97556 9.56527 7.0288 9.43543C7.08203 9.30496 7.14146 9.17764 7.20645 9.05344C7.27205 8.92924 7.34324 8.80882 7.42 8.69153C7.49676 8.57486 7.57907 8.46196 7.66697 8.35282C7.75486 8.24368 7.84772 8.13956 7.94551 8.03982C8.04393 7.94072 8.14606 7.84601 8.25315 7.75632C8.36024 7.66725 8.47103 7.58319 8.58616 7.50479C8.70129 7.42639 8.82014 7.35425 8.94207 7.28777C9.06401 7.22128 9.18905 7.16107 9.31718 7.10712C9.44468 7.05319 9.57468 7.00551 9.70714 6.96475C9.8396 6.92335 9.97392 6.88948 10.1095 6.86187C10.2457 6.83365 10.3824 6.81295 10.5199 6.79915C10.6579 6.78536 10.7959 6.77783 10.934 6.77783H20.5363C20.6742 6.77783 20.8129 6.78472 20.9503 6.79853C21.0884 6.81233 21.2251 6.83303 21.3614 6.86063C21.497 6.88822 21.6313 6.92272 21.7636 6.96349C21.8968 7.00426 22.0268 7.05194 22.1549 7.10587C22.2831 7.15981 22.408 7.22004 22.5299 7.28652C22.6526 7.35237 22.7708 7.42513 22.8866 7.50354C23.0017 7.58131 23.1124 7.66537 23.2202 7.75507C23.3273 7.84413 23.4293 7.93884 23.5278 8.03858C23.6255 8.13768 23.7184 8.24242 23.8063 8.35094C23.8948 8.46008 23.9771 8.57298 24.0539 8.69027C24.1313 8.80756 24.2025 8.92799 24.268 9.05219C24.333 9.17637 24.3925 9.30371 24.4457 9.43417C24.4989 9.56401 24.5454 9.69699 24.5862 9.83184C24.6265 9.96669 24.6599 10.1028 24.6871 10.2414C24.7144 10.3794 24.7348 10.5187 24.749 10.6592C24.7626 10.799 24.7695 10.9402 24.7695 11.0807C24.1758 9.79295 22.4402 9.39716 20.8074 9.3106C20.7181 9.29681 20.629 9.2899 20.5393 9.2899H10.934C10.8188 9.29053 10.7043 9.30182 10.591 9.32503C10.4778 9.34825 10.3682 9.38274 10.2611 9.42728C10.1547 9.47243 10.0531 9.52763 9.9572 9.59286C9.86126 9.65872 9.77276 9.73274 9.69104 9.81553C9.60933 9.89895 9.53629 9.98927 9.47193 10.0871C9.40817 10.1843 9.3537 10.2878 9.30913 10.3963C9.26518 10.5049 9.23176 10.6165 9.20885 10.7319C9.18595 10.8467 9.1748 10.9634 9.17419 11.0807V13.4936C9.17419 17.1793 10.8095 20.5977 13.6606 22.8714L15.7372 24.5267L17.814 22.8714C18.3729 22.426 18.8873 21.9337 19.3577 21.3936C19.8282 20.853 20.2471 20.274 20.6143 19.6562C20.9813 19.0384 21.2902 18.3917 21.5414 17.7169C21.7928 17.0413 21.9821 16.3489 22.1097 15.6388C22.1121 15.5566 22.1066 15.475 22.093 15.3947C22.0794 15.3139 22.0584 15.2354 22.0292 15.159C22.0001 15.0825 21.9636 15.0103 21.9202 14.9413C21.8769 14.8724 21.8275 14.8084 21.7711 14.7494C21.7153 14.691 21.6541 14.6384 21.5879 14.5919C21.5211 14.5455 21.4511 14.5066 21.3768 14.4746C21.3031 14.4426 21.2264 14.4187 21.1478 14.4025C21.0686 14.3862 20.9893 14.378 20.9089 14.378H14.1843C14.1843 18.9281 15.1232 21.3554 15.1375 21.3931L14.4262 20.634C12.6974 18.7862 11.6229 15.9079 11.6229 13.1211V11.8653H20.9089C21.1614 11.866 21.4109 11.8923 21.6585 11.945C21.9054 11.9977 22.145 12.0755 22.3765 12.1783C22.608 12.2812 22.8271 12.4066 23.0332 12.5553C23.2393 12.704 23.4282 12.8727 23.6003 13.0608Z" fill="#FAF9F6"/>
</g>
<defs>
<linearGradient id="paint0_linear_2332_36565" x1="31.5535" y1="31.9742" x2="-6.0686" y2="21.2095" gradientUnits="userSpaceOnUse">
<stop stop-color="#4A5CD0"/>
<stop offset="1" stop-color="#6F9EFF"/>
</linearGradient>
<clipPath id="clip0_2332_36565">
<rect width="31.5789" height="32" fill="white"/>
</clipPath>
</defs>
</svg>
