<svg width="91" height="80" viewBox="0 0 91 80" fill="none" xmlns="http://www.w3.org/2000/svg">
<path opacity="0.4" d="M47.4974 65.9467L19.4276 57.5509C18.6452 57.3169 18.3803 56.2207 18.9575 55.5843L39.5069 32.6429L60.0562 9.70145C60.6334 9.06514 61.609 9.35695 61.8239 10.2302L69.3443 41.5675L76.8647 72.9048C77.0796 73.778 76.3592 74.5795 75.5768 74.3455L47.4974 65.9467Z" fill="#CFCDEC"/>
<path d="M30.0891 70.1928L2.01932 61.7969C1.23692 61.5629 0.972062 60.4667 1.54926 59.8304L22.0986 36.8889L42.648 13.9475C43.2253 13.3112 44.2008 13.6029 44.4156 14.4762L51.9361 45.8135L59.4565 77.1508C59.6714 78.024 58.951 78.8255 58.1686 78.5915L30.0891 70.1928Z" fill="#CFCDEC" stroke="#9476FD" stroke-width="1.4268" stroke-miterlimit="10"/>
</svg>
