<svg width="36" height="40" viewBox="0 0 36 40" fill="none" xmlns="http://www.w3.org/2000/svg">
<path d="M24.6503 35.3337L22.4944 26.3522C22.0332 24.4309 23.0582 22.4491 24.7794 21.9343L32.8253 19.5277C34.5465 19.0129 35.5715 17.0311 35.1103 15.1098C34.6491 13.1885 32.8738 12.0443 31.1526 12.5591L23.1067 14.9657C21.3855 15.4805 19.6102 14.3363 19.149 12.415L16.9931 3.43353C16.5319 1.5122 14.7565 0.368013 13.0353 0.882831C11.3142 1.39765 10.2892 3.37944 10.7503 5.30077L12.9063 14.2822C13.3674 16.2036 12.3424 18.1854 10.6212 18.7002L2.57535 21.1067C0.854157 21.6216 -0.170844 23.6033 0.290349 25.5247C0.751541 27.446 2.5269 28.5902 4.24809 28.0754L12.294 25.6688C14.0152 25.154 15.7905 26.2982 16.2517 28.2195L18.4076 37.2009C18.8688 39.1223 20.6441 40.2665 22.3653 39.7516C24.0865 39.2368 25.1115 37.255 24.6503 35.3337Z" fill="#807ACC"/>
</svg>
