<svg width="16" height="17" viewBox="0 0 16 17" fill="none" xmlns="http://www.w3.org/2000/svg">
<path d="M12.3133 11.72L12.5733 13.8267C12.6399 14.38 12.0466 14.7667 11.5733 14.48L9.2666 13.1067C9.1066 13.0134 9.0666 12.8134 9.15326 12.6534C9.4866 12.04 9.6666 11.3467 9.6666 10.6534C9.6666 8.21337 7.57326 6.22671 4.99993 6.22671C4.47326 6.22671 3.95993 6.30671 3.47993 6.46671C3.23326 6.54671 2.99326 6.32004 3.05326 6.06671C3.65993 3.64004 5.99326 1.83337 8.77993 1.83337C12.0333 1.83337 14.6666 4.29337 14.6666 7.32671C14.6666 9.12671 13.7399 10.72 12.3133 11.72Z" fill="#5B52B6"/>
<path d="M8.66634 10.6534C8.66634 11.4467 8.37301 12.18 7.87967 12.76C7.21967 13.56 6.17301 14.0734 4.99967 14.0734L3.25967 15.1067C2.96634 15.2867 2.59301 15.04 2.63301 14.7L2.79967 13.3867C1.90634 12.7667 1.33301 11.7734 1.33301 10.6534C1.33301 9.48002 1.95967 8.44668 2.91967 7.83335C3.51301 7.44668 4.22634 7.22668 4.99967 7.22668C7.02634 7.22668 8.66634 8.76002 8.66634 10.6534Z" fill="#5B52B6"/>
</svg>
