<svg width="164" height="49" viewBox="0 0 164 49" fill="none" xmlns="http://www.w3.org/2000/svg">
<g clip-path="url(#clip0_2343_36698)">
<path d="M44.998 37.9229V36.8321H51.4979V37.9229H48.8774V45.2308H47.6145V37.9229H44.998ZM52.9342 45.2308V36.8321H58.2002V37.9229H54.2016V40.4819H57.9255V41.5687H54.2016V44.14H58.2493V45.2308H52.9342ZM66.8687 39.5633H65.5887C65.5397 39.2899 65.4482 39.0493 65.314 38.8416C65.1802 38.6338 65.0161 38.4574 64.8222 38.3126C64.6278 38.1676 64.4108 38.0583 64.1702 37.9844C63.932 37.9106 63.6794 37.8737 63.4114 37.8737C62.9273 37.8737 62.4943 37.9954 62.1113 38.2387C61.7311 38.482 61.4304 38.8388 61.209 39.3091C60.9906 39.7793 60.8809 40.3534 60.8809 41.0315C60.8809 41.715 60.9906 42.2918 61.209 42.7621C61.4304 43.2323 61.7326 43.5877 62.1156 43.8283C62.4981 44.0689 62.9288 44.1892 63.4071 44.1892C63.6722 44.1892 63.9239 44.1537 64.162 44.0826C64.4026 44.0087 64.6196 43.9008 64.814 43.7586C65.0079 43.6164 65.172 43.4428 65.3058 43.2378C65.4425 43.03 65.5368 42.7921 65.5887 42.5242L66.8687 42.5283C66.7999 42.9412 66.6675 43.3211 66.4707 43.6684C66.2763 44.0129 66.0266 44.3109 65.7201 44.5624C65.4165 44.8112 65.0695 45.0039 64.6783 45.1406C64.2876 45.2773 63.8613 45.3457 63.3989 45.3457C62.6718 45.3457 62.0237 45.1734 61.4554 44.829C60.8867 44.4817 60.4382 43.9855 60.11 43.3403C59.7848 42.6951 59.6221 41.9255 59.6221 41.0315C59.6221 40.1347 59.7862 39.3651 60.1144 38.7226C60.442 38.0774 60.8905 37.5826 61.4593 37.2381C62.028 36.8909 62.6747 36.7173 63.3989 36.7173C63.8445 36.7173 64.2602 36.7815 64.6456 36.91C65.0339 37.0357 65.3823 37.2217 65.6912 37.4677C66.0006 37.7111 66.2561 38.0091 66.4582 38.3617C66.6608 38.7117 66.7975 39.1122 66.8687 39.5633ZM68.3849 45.2308V36.8321H69.6518V40.4819H73.839V36.8321H75.1103V45.2308H73.839V41.5687H69.6518V45.2308H68.3849ZM83.7345 36.8321V45.2308H82.57L78.301 39.0712H78.223V45.2308H76.9556V36.8321H78.1287L82.4016 42.9999H82.4795V36.8321H83.7345ZM92.8788 41.0315C92.8788 41.9282 92.7147 42.6992 92.3865 43.3444C92.0584 43.9869 91.6089 44.4817 91.0373 44.829C90.4686 45.1734 89.8223 45.3457 89.0977 45.3457C88.3706 45.3457 87.721 45.1734 87.1499 44.829C86.5811 44.4817 86.1327 43.9855 85.8045 43.3403C85.4763 42.6951 85.3122 41.9255 85.3122 41.0315C85.3122 40.1347 85.4763 39.3651 85.8045 38.7226C86.1327 38.0774 86.5811 37.5826 87.1499 37.2381C87.721 36.8909 88.3706 36.7173 89.0977 36.7173C89.8223 36.7173 90.4686 36.8909 91.0373 37.2381C91.6089 37.5826 92.0584 38.0774 92.3865 38.7226C92.7147 39.3651 92.8788 40.1347 92.8788 41.0315ZM91.6239 41.0315C91.6239 40.348 91.5132 39.7724 91.2919 39.305C91.0729 38.8347 90.7722 38.4793 90.3896 38.2387C90.0095 37.9954 89.5788 37.8737 89.0977 37.8737C88.6136 37.8737 88.182 37.9954 87.8019 38.2387C87.4217 38.4793 87.121 38.8347 86.8997 39.305C86.6807 39.7724 86.5715 40.348 86.5715 41.0315C86.5715 41.715 86.6807 42.2918 86.8997 42.7621C87.121 43.2296 87.4217 43.585 87.8019 43.8283C88.182 44.0689 88.6136 44.1892 89.0977 44.1892C89.5788 44.1892 90.0095 44.0689 90.3896 43.8283C90.7722 43.585 91.0729 43.2296 91.2919 42.7621C91.5132 42.2918 91.6239 41.715 91.6239 41.0315ZM94.4585 45.2308V36.8321H95.7259V44.14H99.5315V45.2308H94.4585ZM107.945 41.0315C107.945 41.9282 107.782 42.6992 107.454 43.3444C107.126 43.9869 106.676 44.4817 106.104 44.829C105.536 45.1734 104.889 45.3457 104.164 45.3457C103.437 45.3457 102.788 45.1734 102.217 44.829C101.648 44.4817 101.2 43.9855 100.872 43.3403C100.543 42.6951 100.379 41.9255 100.379 41.0315C100.379 40.1347 100.543 39.3651 100.872 38.7226C101.2 38.0774 101.648 37.5826 102.217 37.2381C102.788 36.8909 103.437 36.7173 104.164 36.7173C104.889 36.7173 105.536 36.8909 106.104 37.2381C106.676 37.5826 107.126 38.0774 107.454 38.7226C107.782 39.3651 107.945 40.1347 107.945 41.0315ZM106.691 41.0315C106.691 40.348 106.58 39.7724 106.359 39.305C106.14 38.8347 105.839 38.4793 105.456 38.2387C105.076 37.9954 104.646 37.8737 104.164 37.8737C103.681 37.8737 103.249 37.9954 102.869 38.2387C102.489 38.4793 102.188 38.8347 101.966 39.305C101.748 39.7724 101.638 40.348 101.638 41.0315C101.638 41.715 101.748 42.2918 101.966 42.7621C102.188 43.2296 102.489 43.585 102.869 43.8283C103.249 44.0689 103.681 44.1892 104.164 44.1892C104.646 44.1892 105.076 44.0689 105.456 43.8283C105.839 43.585 106.14 43.2296 106.359 42.7621C106.58 42.2918 106.691 41.715 106.691 41.0315ZM115.209 39.4854C115.13 39.2366 115.024 39.0138 114.89 38.817C114.758 38.6174 114.601 38.4479 114.418 38.3084C114.235 38.1663 114.026 38.0583 113.79 37.9844C113.558 37.9106 113.302 37.8737 113.024 37.8737C112.551 37.8737 112.124 37.9954 111.744 38.2387C111.364 38.482 111.063 38.8388 110.842 39.3091C110.623 39.7766 110.514 40.3493 110.514 41.0274C110.514 41.7081 110.625 42.2836 110.846 42.7539C111.067 43.2241 111.371 43.5809 111.756 43.8242C112.142 44.0675 112.581 44.1892 113.073 44.1892C113.53 44.1892 113.927 44.0962 114.266 43.9103C114.608 43.7244 114.872 43.462 115.058 43.1229C115.246 42.7812 115.341 42.3793 115.341 41.9173L115.669 41.9788H113.266V40.9331H116.567V41.8886C116.567 42.5939 116.417 43.2063 116.116 43.7258C115.818 44.2425 115.405 44.6417 114.877 44.9233C114.352 45.2049 113.751 45.3457 113.073 45.3457C112.313 45.3457 111.646 45.1707 111.072 44.8207C110.5 44.4708 110.054 43.9746 109.734 43.3321C109.415 42.6869 109.255 41.9214 109.255 41.0355C109.255 40.3657 109.348 39.7643 109.534 39.2311C109.72 38.698 109.981 38.2456 110.317 37.8737C110.656 37.4992 111.054 37.2135 111.51 37.0166C111.97 36.8171 112.471 36.7173 113.016 36.7173C113.469 36.7173 113.892 36.7842 114.283 36.9182C114.676 37.0522 115.026 37.2422 115.332 37.4882C115.641 37.7343 115.897 38.0268 116.099 38.3659C116.302 38.7021 116.438 39.0753 116.509 39.4854H115.209ZM119.443 36.8321V45.2308H118.175V36.8321H119.443ZM121.288 45.2308V36.8321H126.554V37.9229H122.555V40.4819H126.279V41.5687H122.555V44.14H126.603V45.2308H121.288ZM132.827 39.0384C132.783 38.6502 132.603 38.3495 132.286 38.1362C131.969 37.9202 131.569 37.8122 131.088 37.8122C130.744 37.8122 130.446 37.8669 130.194 37.9763C129.943 38.0829 129.747 38.2305 129.608 38.4192C129.471 38.6051 129.403 38.817 129.403 39.0548C129.403 39.2544 129.449 39.4266 129.542 39.5715C129.638 39.7164 129.763 39.8381 129.916 39.9365C130.071 40.0322 130.238 40.1128 130.416 40.1785C130.594 40.2414 130.764 40.2933 130.928 40.3343L131.748 40.5475C132.016 40.6132 132.291 40.702 132.573 40.8141C132.855 40.9262 133.115 41.0738 133.356 41.257C133.597 41.4402 133.791 41.6671 133.939 41.9378C134.089 42.2085 134.164 42.5324 134.164 42.9097C134.164 43.3854 134.041 43.8078 133.795 44.1769C133.552 44.546 133.198 44.8371 132.733 45.0504C132.271 45.2637 131.712 45.3703 131.055 45.3703C130.427 45.3703 129.883 45.2705 129.423 45.0709C128.964 44.8713 128.604 44.5884 128.345 44.222C128.085 43.8529 127.942 43.4155 127.914 42.9097H129.186C129.21 43.2132 129.308 43.4661 129.481 43.6684C129.656 43.868 129.879 44.017 130.149 44.1154C130.423 44.2111 130.722 44.2589 131.047 44.2589C131.405 44.2589 131.724 44.2029 132.003 44.0908C132.284 43.9759 132.506 43.8174 132.667 43.615C132.829 43.41 132.909 43.1708 132.909 42.8974C132.909 42.6486 132.838 42.4449 132.696 42.2864C132.556 42.1278 132.367 41.9966 132.126 41.8927C131.888 41.7888 131.619 41.6972 131.318 41.6179L130.326 41.3473C129.653 41.1641 129.12 40.8948 128.726 40.5394C128.335 40.184 128.14 39.7137 128.14 39.1286C128.14 38.6447 128.271 38.2223 128.534 37.8614C128.796 37.5006 129.151 37.2203 129.6 37.0207C130.048 36.8184 130.554 36.7173 131.117 36.7173C131.686 36.7173 132.187 36.8171 132.622 37.0166C133.06 37.2162 133.404 37.491 133.656 37.8409C133.907 38.1881 134.038 38.5873 134.049 39.0384H132.827ZM138.735 45.2308V36.8321H140.002V44.14H143.808V45.2308H138.735ZM143.745 37.9229V36.8321H150.245V37.9229H147.624V45.2308H146.361V37.9229H143.745ZM154.4 45.2308H151.681V36.8321H154.486C155.309 36.8321 156.016 37.0002 156.607 37.3365C157.197 37.67 157.65 38.1499 157.964 38.7759C158.281 39.3993 158.44 40.147 158.44 41.0192C158.44 41.894 158.28 42.6459 157.96 43.2747C157.643 43.9035 157.183 44.3874 156.582 44.7264C155.981 45.0627 155.253 45.2308 154.4 45.2308ZM152.949 44.1236H154.331C154.97 44.1236 155.502 44.0033 155.926 43.7627C156.35 43.5194 156.667 43.1681 156.877 42.7087C157.088 42.2467 157.193 41.6835 157.193 41.0192C157.193 40.3603 157.088 39.8012 156.877 39.3419C156.67 38.8826 156.359 38.534 155.946 38.2961C155.534 38.0582 155.021 37.9394 154.409 37.9394H152.949V44.1236ZM160.195 45.3087C159.97 45.3087 159.778 45.2295 159.617 45.0709C159.455 44.9096 159.375 44.7155 159.375 44.4886C159.375 44.2644 159.455 44.073 159.617 43.9144C159.778 43.7531 159.97 43.6725 160.195 43.6725C160.419 43.6725 160.612 43.7531 160.773 43.9144C160.934 44.073 161.015 44.2644 161.015 44.4886C161.015 44.6389 160.977 44.777 160.9 44.9028C160.826 45.0258 160.728 45.1242 160.605 45.198C160.482 45.2718 160.345 45.3087 160.195 45.3087Z" fill="#666D80"/>
<path d="M66.6457 10.5907L64.9428 12.2036C63.7182 10.9989 62.3743 10.0879 60.9106 9.47064C59.4569 8.84338 58.0384 8.52974 56.6541 8.52974C54.9319 8.52974 53.2892 8.95289 51.7258 9.79919C50.1726 10.6455 48.9677 11.7955 48.1116 13.2491C47.2554 14.6928 46.8273 16.2211 46.8273 17.834C46.8273 19.4868 47.2703 21.0599 48.1564 22.5534C49.0428 24.0369 50.2674 25.2067 51.8302 26.063C53.3936 26.9093 55.1061 27.3324 56.9678 27.3324C59.2279 27.3324 61.1396 26.6952 62.7029 25.4208C64.2658 24.1464 65.1921 22.4936 65.4808 20.4625H58.4763V18.3418H67.9449C67.9247 21.7369 66.9142 24.4351 64.913 26.4364C62.9219 28.4276 60.2533 29.4233 56.9081 29.4233C52.846 29.4233 49.6298 28.0393 47.2604 25.2714C45.4384 23.1408 44.5273 20.6766 44.5273 17.8788C44.5273 15.7979 45.05 13.8614 46.0955 12.0692C47.1409 10.2771 48.5746 8.87821 50.3968 7.8726C52.2185 6.85707 54.2794 6.34928 56.5795 6.34928C58.4416 6.34928 60.1936 6.68779 61.8363 7.36486C63.4796 8.03192 65.0824 9.10721 66.6457 10.5907ZM71.4845 12.6218H75.5764V14.4887C76.2731 13.722 77.045 13.1495 77.8913 12.7712C78.7474 12.3928 79.6784 12.2036 80.6841 12.2036C81.6994 12.2036 82.6156 12.4526 83.4321 12.9504C84.2487 13.4482 84.9055 14.175 85.4035 15.1308C86.0507 14.175 86.8422 13.4482 87.7781 12.9504C88.7241 12.4526 89.7543 12.2036 90.8697 12.2036C92.0245 12.2036 93.0398 12.4725 93.916 13.0101C94.7923 13.5478 95.4197 14.2497 95.7979 15.1159C96.1862 15.9821 96.3802 17.3909 96.3802 19.3424V28.8707H92.2733V20.6268C92.2733 18.7849 92.0443 17.5403 91.5862 16.8931C91.1286 16.236 90.4414 15.9075 89.5253 15.9075C88.8285 15.9075 88.2011 16.1066 87.6434 16.5048C87.0958 16.9031 86.6878 17.4557 86.4188 18.1626C86.1503 18.8595 86.0156 19.9846 86.0156 21.5378V28.8707H81.9087V21.0002C81.9087 19.5465 81.799 18.4961 81.5801 17.8489C81.3712 17.1918 81.0527 16.704 80.6244 16.3854C80.1962 16.0667 79.6784 15.9075 79.0712 15.9075C78.3942 15.9075 77.7768 16.1115 77.2191 16.5198C76.6716 16.918 76.2582 17.4806 75.9796 18.2074C75.7106 18.9342 75.5764 20.0792 75.5764 21.6423V28.8707H71.4845V12.6218ZM107.91 12.2036C109.443 12.2036 110.882 12.587 112.226 13.3536C113.58 14.1203 114.636 15.1607 115.392 16.475C116.149 17.7892 116.527 19.208 116.527 20.7313C116.527 22.2646 116.144 23.6983 115.377 25.0325C114.621 26.3666 113.585 27.4121 112.271 28.1688C110.956 28.9155 109.508 29.2889 107.925 29.2889C105.595 29.2889 103.604 28.4625 101.951 26.8097C100.308 25.147 99.4866 23.1308 99.4866 20.7612C99.4866 18.2223 100.418 16.1066 102.279 14.414C103.913 12.9404 105.789 12.2036 107.91 12.2036ZM107.97 16.0419C106.705 16.0419 105.65 16.4849 104.804 17.371C103.967 18.2472 103.549 19.3723 103.549 20.7462C103.549 22.1601 103.962 23.3051 104.789 24.1812C105.625 25.0574 106.68 25.4955 107.955 25.4955C109.229 25.4955 110.29 25.0524 111.136 24.1663C111.982 23.2802 112.405 22.1402 112.405 20.7462C112.405 19.3524 111.987 18.2223 111.151 17.3561C110.324 16.4799 109.264 16.0419 107.97 16.0419ZM119.873 12.6218H123.935V14.2796C124.861 13.503 125.697 12.9653 126.444 12.6666C127.201 12.358 127.972 12.2036 128.759 12.2036C130.372 12.2036 131.741 12.7662 132.866 13.8913C133.812 14.8471 134.285 16.2609 134.285 18.1327V28.8707H130.252V21.7469C130.252 19.8054 130.163 18.516 129.983 17.8788C129.814 17.2416 129.51 16.7587 129.072 16.4302C128.644 16.0917 128.111 15.9224 127.474 15.9224C126.648 15.9224 125.936 16.2012 125.338 16.7587C124.751 17.3063 124.343 18.068 124.114 19.0437C123.995 19.5515 123.935 20.6517 123.935 22.3443V28.8707H119.873V12.6218ZM139.84 5.93109C140.557 5.93109 141.169 6.18997 141.677 6.70771C142.195 7.22546 142.453 7.85268 142.453 8.58946C142.453 9.31628 142.2 9.93859 141.692 10.4563C141.184 10.9641 140.577 11.218 139.87 11.218C139.143 11.218 138.521 10.9591 138.003 10.4414C137.495 9.91366 137.241 9.27649 137.241 8.52974C137.241 7.81288 137.495 7.20054 138.003 6.6928C138.511 6.18501 139.123 5.93109 139.84 5.93109ZM137.794 12.6218H141.886V28.8707H137.794V12.6218ZM161.869 21.9261H148.771C148.96 23.0811 149.463 24.002 150.279 24.689C151.106 25.366 152.156 25.7045 153.431 25.7045C154.954 25.7045 156.263 25.1719 157.358 24.1066L160.794 25.7195C159.937 26.9342 158.912 27.8353 157.717 28.4227C156.522 29.0001 155.103 29.2889 153.46 29.2889C150.912 29.2889 148.836 28.4874 147.233 26.8844C145.63 25.2714 144.828 23.2553 144.828 20.8359C144.828 18.3567 145.625 16.3007 147.218 14.6678C148.821 13.0251 150.827 12.2036 153.237 12.2036C155.795 12.2036 157.876 13.0251 159.479 14.6678C161.082 16.3007 161.883 18.4613 161.883 21.1495L161.869 21.9261ZM157.777 18.7151C157.508 17.8091 156.975 17.0723 156.179 16.5048C155.392 15.9373 154.476 15.6535 153.431 15.6535C152.296 15.6535 151.3 15.9722 150.444 16.6094C149.906 17.0076 149.408 17.7096 148.95 18.7151H157.777Z" fill="#121212"/>
<path d="M18.2629 36.5696C28.2285 36.5696 36.3071 28.3832 36.3071 18.2848C36.3071 8.18638 28.2285 0 18.2629 0C8.29741 0 0.21875 8.18638 0.21875 18.2848C0.21875 28.3832 8.29741 36.5696 18.2629 36.5696Z" fill="#F0F0F9"/>
<path d="M27.2081 14.9378C27.4042 15.1538 27.5769 15.3876 27.7256 15.6394C27.8742 15.8912 27.9967 16.1559 28.0916 16.4336C28.1871 16.7112 28.2537 16.996 28.2912 17.2873C28.3287 17.5792 28.3372 17.8712 28.316 18.1646L28.3103 18.2364L28.2976 18.3067C28.1263 19.2995 27.8665 20.268 27.5195 21.2121C27.1734 22.1569 26.7451 23.0608 26.2353 23.9252C25.7249 24.7896 25.1423 25.5995 24.486 26.3549C23.8305 27.1103 23.1126 27.7983 22.3324 28.4196L18.215 31.7023L14.0984 28.4196C13.6156 28.0351 13.1561 27.6233 12.72 27.1857C12.2832 26.7481 11.8726 26.2861 11.4875 25.8012C11.1024 25.3162 10.7448 24.8105 10.4164 24.2839C10.0879 23.758 9.78913 23.2143 9.52082 22.6533C9.25252 22.093 9.01606 21.5184 8.81219 20.9309C8.60759 20.3426 8.43697 19.745 8.29964 19.1374C8.16159 18.5298 8.05823 17.9164 7.98884 17.2966C7.91946 16.6775 7.88477 16.0562 7.88477 15.4328V12.6731C7.88549 12.5124 7.89328 12.3517 7.90882 12.191C7.92441 12.031 7.94847 11.8718 7.97893 11.7139C8.01006 11.5554 8.04899 11.3997 8.09504 11.2455C8.14104 11.0912 8.19412 10.9399 8.25503 10.7914C8.3159 10.6422 8.38384 10.4965 8.45819 10.3545C8.53325 10.2124 8.61467 10.0747 8.70243 9.94055C8.79025 9.80712 8.88437 9.67797 8.98493 9.55316C9.08545 9.42834 9.19165 9.30925 9.30347 9.19521C9.41607 9.08184 9.53285 8.97353 9.65531 8.87094C9.77782 8.76908 9.90451 8.67294 10.0362 8.58324C10.1679 8.4936 10.3038 8.41108 10.4433 8.33505C10.5827 8.25903 10.7257 8.19012 10.8723 8.12843C11.0181 8.06675 11.1668 8.01223 11.3183 7.9656C11.4698 7.91826 11.6234 7.87952 11.7785 7.84796C11.9342 7.81567 12.0907 7.79199 12.2478 7.77621C12.4057 7.76043 12.5636 7.75182 12.7214 7.75182H23.7038C23.8616 7.75182 24.0202 7.75971 24.1774 7.77549C24.3352 7.79127 24.4917 7.81495 24.6474 7.84651C24.8025 7.87808 24.9561 7.91753 25.1076 7.96416C25.2598 8.01079 25.4085 8.0653 25.555 8.12699C25.7016 8.18873 25.8446 8.25758 25.984 8.33361C26.1242 8.40896 26.2594 8.49216 26.3918 8.58185C26.5235 8.67077 26.6502 8.76691 26.7734 8.8695C26.8958 8.97136 27.0127 9.07968 27.1252 9.19376C27.2371 9.30708 27.3433 9.42689 27.4438 9.55099C27.545 9.67586 27.6392 9.80496 27.727 9.93911C27.8155 10.0733 27.8969 10.211 27.9719 10.3531C28.0463 10.4951 28.1142 10.6407 28.1751 10.7899C28.236 10.9384 28.2891 11.0905 28.3358 11.2447C28.3818 11.399 28.4201 11.5547 28.4512 11.7132C28.4824 11.871 28.5057 12.0303 28.522 12.191C28.5376 12.351 28.5454 12.5124 28.5454 12.6731C27.8665 11.2003 25.8814 10.7476 24.0138 10.6486C23.9119 10.6328 23.8099 10.6249 23.7073 10.6249H12.7214C12.5898 10.6257 12.4588 10.6386 12.3292 10.6651C12.1997 10.6917 12.0744 10.7311 11.9519 10.782C11.8301 10.8337 11.714 10.8968 11.6043 10.9714C11.4946 11.0467 11.3933 11.1314 11.2999 11.2261C11.2064 11.3215 11.1229 11.4248 11.0493 11.5367C10.9763 11.6479 10.9141 11.7663 10.8631 11.8904C10.8128 12.0145 10.7746 12.1422 10.7484 12.2742C10.7222 12.4055 10.7095 12.5389 10.7088 12.6731V15.4328C10.7088 19.6482 12.5791 23.5579 15.8399 26.1584L18.215 28.0516L20.5902 26.1584C21.2295 25.6491 21.8178 25.0859 22.3558 24.4682C22.8939 23.8499 23.3731 23.1877 23.793 22.4811C24.2127 21.7745 24.566 21.0348 24.8534 20.2629C25.1409 19.4904 25.3575 18.6983 25.5034 17.8863C25.5062 17.7923 25.4998 17.699 25.4842 17.6072C25.4687 17.5147 25.4446 17.425 25.4113 17.3375C25.378 17.2499 25.3362 17.1675 25.2867 17.0886C25.2372 17.0096 25.1805 16.9365 25.1161 16.869C25.0524 16.8023 24.9823 16.7421 24.9066 16.689C24.8301 16.6359 24.7501 16.5914 24.6651 16.5548C24.5809 16.5182 24.4931 16.491 24.4032 16.4723C24.3126 16.4536 24.222 16.4444 24.1299 16.4444H16.4388C16.4388 21.6482 17.5128 24.4245 17.5291 24.4675L16.7156 23.5995C14.7384 21.4861 13.5094 18.194 13.5094 15.0067V13.5705H24.1299C24.4188 13.5712 24.7041 13.6014 24.9872 13.6616C25.2697 13.7219 25.5437 13.8108 25.8085 13.9285C26.0732 14.0461 26.3239 14.1896 26.5596 14.3596C26.7953 14.5296 27.0113 14.7226 27.2081 14.9378Z" fill="#121212"/>
</g>
<defs>
<clipPath id="clip0_2343_36698">
<rect width="163.12" height="48.1179" fill="white" transform="translate(0.21875)"/>
</clipPath>
</defs>
</svg>
