<svg width="53" height="52" viewBox="0 0 53 52" fill="none" xmlns="http://www.w3.org/2000/svg">
<rect x="0.5" width="52" height="52" rx="26" fill="#DFFFF2"/>
<path d="M29.69 16H21.31C17.67 16 15.5 18.17 15.5 21.81V30.18C15.5 33.83 17.67 36 21.31 36H29.68C33.32 36 35.49 33.83 35.49 30.19V21.81C35.5 18.17 33.33 16 29.69 16ZM21.13 32.15C21.13 32.56 20.79 32.9 20.38 32.9C19.97 32.9 19.63 32.56 19.63 32.15V30.08C19.63 29.67 19.97 29.33 20.38 29.33C20.79 29.33 21.13 29.67 21.13 30.08V32.15ZM26.25 32.15C26.25 32.56 25.91 32.9 25.5 32.9C25.09 32.9 24.75 32.56 24.75 32.15V28C24.75 27.59 25.09 27.25 25.5 27.25C25.91 27.25 26.25 27.59 26.25 28V32.15ZM31.37 32.15C31.37 32.56 31.03 32.9 30.62 32.9C30.21 32.9 29.87 32.56 29.87 32.15V25.93C29.87 25.52 30.21 25.18 30.62 25.18C31.03 25.18 31.37 25.52 31.37 25.93V32.15ZM31.37 22.77C31.37 23.18 31.03 23.52 30.62 23.52C30.21 23.52 29.87 23.18 29.87 22.77V21.8C27.32 24.42 24.13 26.27 20.56 27.16C20.5 27.18 20.44 27.18 20.38 27.18C20.04 27.18 19.74 26.95 19.65 26.61C19.55 26.21 19.79 25.8 20.2 25.7C23.57 24.86 26.57 23.09 28.95 20.59H27.7C27.29 20.59 26.95 20.25 26.95 19.84C26.95 19.43 27.29 19.09 27.7 19.09H30.63C30.67 19.09 30.7 19.11 30.74 19.11C30.79 19.12 30.84 19.12 30.89 19.14C30.94 19.16 30.98 19.19 31.03 19.22C31.06 19.24 31.09 19.25 31.12 19.27C31.13 19.28 31.13 19.29 31.14 19.29C31.18 19.33 31.21 19.37 31.24 19.41C31.27 19.45 31.3 19.48 31.31 19.52C31.33 19.56 31.33 19.6 31.34 19.65C31.35 19.7 31.37 19.75 31.37 19.81C31.37 19.82 31.38 19.83 31.38 19.84V22.77H31.37Z" fill="#23E697"/>
</svg>
