<svg width="189" height="55" viewBox="0 0 189 55" fill="none" xmlns="http://www.w3.org/2000/svg">
<path d="M76.8496 12.3429L74.8917 14.1977C73.4834 12.8123 71.9377 11.7647 70.2546 11.0548C68.583 10.3335 66.9514 9.97285 65.3599 9.97285C63.3792 9.97285 61.49 10.4595 59.6924 11.4327C57.9063 12.4059 56.5209 13.7283 55.5362 15.3999C54.5516 17.0601 54.0592 18.8176 54.0592 20.6725C54.0592 22.5731 54.5687 24.3821 55.5877 26.0996C56.6067 27.8056 58.015 29.1509 59.8126 30.1355C61.6102 31.1088 63.5795 31.5954 65.7206 31.5954C68.3197 31.5954 70.518 30.8626 72.3156 29.397C74.1131 27.9315 75.1779 26.0309 75.51 23.6952H67.4552V21.2564H78.3438C78.3209 25.1607 77.1587 28.2635 74.8574 30.5649C72.5674 32.8548 69.499 33.9998 65.6519 33.9998C60.9805 33.9998 57.2823 32.4083 54.5573 29.2253C52.462 26.7751 51.4144 23.9413 51.4144 20.724C51.4144 18.331 52.0155 16.1041 53.2177 14.0432C54.4199 11.9823 56.0686 10.3736 58.1639 9.21718C60.2592 8.04932 62.6292 7.4654 65.2741 7.4654C67.4151 7.4654 69.4303 7.85468 71.3194 8.63325C73.2086 9.40037 75.052 10.6369 76.8496 12.3429ZM82.4141 14.6786H87.1198V16.8254C87.9213 15.9438 88.8087 15.2855 89.7819 14.8504C90.7665 14.4153 91.8371 14.1977 92.9935 14.1977C94.1613 14.1977 95.2147 14.484 96.1536 15.0565C97.0924 15.6289 97.8481 16.4648 98.4206 17.5639C99.1648 16.4648 100.075 15.6289 101.151 15.0565C102.239 14.484 103.424 14.1977 104.706 14.1977C106.035 14.1977 107.202 14.5069 108.21 15.1252C109.218 15.7434 109.939 16.5506 110.374 17.5467C110.82 18.5429 111.044 20.163 111.044 22.4071V33.3643H106.321V23.8841C106.321 21.7659 106.057 20.3347 105.531 19.5905C105.004 18.8348 104.214 18.457 103.161 18.457C102.359 18.457 101.638 18.686 100.997 19.144C100.367 19.6019 99.8976 20.2374 99.5884 21.0503C99.2793 21.8518 99.1247 23.1456 99.1247 24.9317V33.3643H94.4018V24.3134C94.4018 22.6418 94.2758 21.4339 94.0239 20.6896C93.7835 19.934 93.4171 19.3729 92.9248 19.0066C92.4324 18.6402 91.8371 18.457 91.1386 18.457C90.3601 18.457 89.6502 18.6917 89.009 19.1611C88.3793 19.6191 87.9041 20.266 87.5836 21.1018C87.2744 21.9377 87.1198 23.2544 87.1198 25.0519V33.3643H82.4141V14.6786ZM124.302 14.1977C126.066 14.1977 127.72 14.6386 129.266 15.5202C130.823 16.4018 132.037 17.5983 132.907 19.1096C133.777 20.6209 134.212 22.2525 134.212 24.0043C134.212 25.7675 133.771 27.4163 132.89 28.9505C132.019 30.4848 130.829 31.687 129.317 32.5571C127.806 33.4158 126.14 33.8452 124.319 33.8452C121.64 33.8452 119.35 32.8949 117.45 30.9943C115.561 29.0822 114.616 26.7636 114.616 24.0386C114.616 21.119 115.687 18.686 117.828 16.7395C119.705 15.045 121.864 14.1977 124.302 14.1977ZM124.371 18.6116C122.917 18.6116 121.703 19.1211 120.73 20.1401C119.768 21.1476 119.287 22.4414 119.287 24.0215C119.287 25.6473 119.763 26.964 120.713 27.9716C121.675 28.9791 122.888 29.4829 124.354 29.4829C125.819 29.4829 127.039 28.9734 128.012 27.9544C128.985 26.9354 129.472 25.6244 129.472 24.0215C129.472 22.4185 128.991 21.119 128.029 20.1229C127.079 19.1153 125.859 18.6116 124.371 18.6116ZM138.059 14.6786H142.73V16.585C143.795 15.6919 144.757 15.0736 145.616 14.7301C146.486 14.3752 147.373 14.1977 148.278 14.1977C150.133 14.1977 151.707 14.8446 153.001 16.1384C154.088 17.2376 154.632 18.8634 154.632 21.016V33.3643H149.995V25.1722C149.995 22.9395 149.892 21.4568 149.686 20.724C149.491 19.9912 149.142 19.4359 148.638 19.0581C148.146 18.6688 147.533 18.4742 146.801 18.4742C145.85 18.4742 145.032 18.7947 144.345 19.4359C143.669 20.0656 143.2 20.9415 142.936 22.0636C142.799 22.6475 142.73 23.9127 142.73 25.8591V33.3643H138.059V14.6786ZM161.021 6.98451C161.845 6.98451 162.55 7.2822 163.134 7.87758C163.729 8.47296 164.027 9.19428 164.027 10.0415C164.027 10.8774 163.735 11.593 163.151 12.1883C162.567 12.7723 161.868 13.0642 161.055 13.0642C160.22 13.0642 159.504 12.7665 158.909 12.1712C158.325 11.5643 158.033 10.8316 158.033 9.97285C158.033 9.14848 158.325 8.44433 158.909 7.86041C159.493 7.27648 160.197 6.98451 161.021 6.98451ZM158.668 14.6786H163.374V33.3643H158.668V14.6786ZM186.353 25.3782H171.291C171.509 26.7064 172.087 27.7655 173.026 28.5555C173.976 29.3341 175.184 29.7234 176.65 29.7234C178.402 29.7234 179.907 29.1108 181.167 27.8857L185.117 29.7405C184.132 31.1374 182.953 32.1736 181.579 32.8491C180.205 33.5132 178.573 33.8452 176.684 33.8452C173.753 33.8452 171.366 32.9235 169.522 31.0801C167.679 29.2253 166.757 26.9068 166.757 24.1245C166.757 21.2736 167.673 18.9092 169.505 17.0315C171.349 15.1423 173.656 14.1977 176.426 14.1977C179.369 14.1977 181.762 15.1423 183.605 17.0315C185.449 18.9092 186.37 21.3938 186.37 24.4852L186.353 25.3782ZM181.647 21.6858C181.338 20.6438 180.726 19.7966 179.81 19.144C178.905 18.4913 177.852 18.165 176.65 18.165C175.344 18.165 174.2 18.5314 173.215 19.2642C172.597 19.7222 172.024 20.5294 171.497 21.6858H181.647Z" fill="#016DDD"/>
<ellipse cx="21.2131" cy="21.6245" rx="20.7503" ry="21.0269" fill="#016DDD"/>
<path d="M31.5024 17.7758C31.7279 18.0241 31.9266 18.293 32.0975 18.5826C32.2685 18.8722 32.4094 19.1766 32.5184 19.4958C32.6283 19.8151 32.7049 20.1426 32.748 20.4775C32.7912 20.8133 32.8009 21.1491 32.7765 21.4865L32.77 21.569L32.7554 21.6498C32.5583 22.7916 32.2596 23.9053 31.8606 24.9909C31.4625 26.0774 30.97 27.1169 30.3838 28.111C29.7969 29.105 29.1269 30.0364 28.3722 30.9051C27.6183 31.7738 26.7928 32.565 25.8956 33.2794L21.1608 37.0544L16.4267 33.2794C15.8715 32.8372 15.3431 32.3637 14.8416 31.8604C14.3393 31.3572 13.8671 30.8259 13.4243 30.2682C12.9814 29.7106 12.5703 29.129 12.1925 28.5234C11.8148 27.9187 11.4712 27.2934 11.1627 26.6483C10.8541 26.004 10.5822 25.3432 10.3477 24.6676C10.1125 23.9911 9.91626 23.3039 9.75832 22.6051C9.59957 21.9064 9.48071 21.201 9.40092 20.4883C9.32114 19.7763 9.28125 19.0619 9.28125 18.345V15.1714C9.28206 14.9866 9.29102 14.8018 9.30893 14.617C9.32684 14.433 9.35452 14.2499 9.38953 14.0684C9.42535 13.8861 9.47012 13.707 9.52304 13.5297C9.57596 13.3523 9.63702 13.1782 9.70703 13.0075C9.77704 12.8359 9.8552 12.6684 9.94068 12.5051C10.027 12.3417 10.1206 12.1833 10.2215 12.0291C10.3225 11.8756 10.4308 11.7271 10.5464 11.5836C10.662 11.44 10.7841 11.3031 10.9127 11.1719C11.0422 11.0416 11.1765 10.917 11.3173 10.799C11.4582 10.6819 11.6039 10.5713 11.7553 10.4682C11.9068 10.3651 12.0631 10.2702 12.2235 10.1828C12.3838 10.0953 12.5483 10.0161 12.7168 9.94519C12.8845 9.87425 13.0555 9.81155 13.2297 9.75793C13.4039 9.70348 13.5806 9.65893 13.7589 9.62263C13.938 9.58551 14.1179 9.55828 14.2986 9.54013C14.4802 9.52198 14.6617 9.51208 14.8433 9.51208H27.4726C27.6541 9.51208 27.8365 9.52116 28.0172 9.53931C28.1988 9.55746 28.3787 9.58468 28.5578 9.62098C28.7361 9.65728 28.9127 9.70265 29.087 9.75628C29.262 9.8099 29.433 9.8726 29.6015 9.94354C29.77 10.0145 29.9345 10.0937 30.0948 10.1811C30.256 10.2678 30.4115 10.3635 30.5638 10.4666C30.7152 10.5689 30.8609 10.6794 31.0026 10.7974C31.1434 10.9145 31.2777 11.0391 31.4072 11.1703C31.5358 11.3006 31.6579 11.4384 31.7735 11.5811C31.8899 11.7246 31.9982 11.8731 32.0992 12.0274C32.2009 12.1817 32.2946 12.3401 32.3809 12.5034C32.4663 12.6668 32.5445 12.8342 32.6145 13.0058C32.6845 13.1766 32.7456 13.3515 32.7993 13.5288C32.8522 13.7062 32.8962 13.8852 32.932 14.0676C32.9678 14.249 32.9947 14.4322 33.0134 14.617C33.0313 14.8009 33.0403 14.9866 33.0403 15.1714C32.2596 13.4777 29.9768 12.9571 27.8292 12.8433C27.7119 12.8252 27.5947 12.8161 27.4767 12.8161H14.8433C14.6918 12.8169 14.5412 12.8318 14.3922 12.8623C14.2433 12.8928 14.0992 12.9382 13.9583 12.9967C13.8183 13.0561 13.6848 13.1287 13.5586 13.2145C13.4324 13.3012 13.316 13.3985 13.2085 13.5074C13.1011 13.6171 13.005 13.7359 12.9203 13.8646C12.8365 13.9925 12.7648 14.1286 12.7062 14.2713C12.6484 14.414 12.6045 14.5609 12.5743 14.7127C12.5442 14.8636 12.5296 15.0171 12.5287 15.1714V18.345C12.5287 23.1925 14.6796 27.6886 18.4294 30.6791L21.1608 32.8562L23.8921 30.6791C24.6273 30.0934 25.3038 29.4458 25.9225 28.7355C26.5412 28.0243 27.0924 27.2629 27.5752 26.4503C28.0579 25.6377 28.4642 24.7872 28.7947 23.8995C29.1252 23.011 29.3743 22.1003 29.5421 21.1664C29.5453 21.0583 29.538 20.9511 29.5201 20.8455C29.5022 20.7391 29.4745 20.6359 29.4362 20.5353C29.398 20.4346 29.3499 20.3398 29.2929 20.249C29.2359 20.1583 29.1708 20.0741 29.0967 19.9966C29.0235 19.9199 28.9429 19.8506 28.8558 19.7895C28.7678 19.7285 28.6758 19.6773 28.5781 19.6353C28.4813 19.5932 28.3803 19.5618 28.2769 19.5404C28.1727 19.5189 28.0685 19.5082 27.9627 19.5082H19.1182C19.1182 25.4925 20.3532 28.6851 20.3719 28.7346L19.4365 27.7364C17.1627 25.3061 15.7494 21.5203 15.7494 17.855V16.2034H27.9627C28.2948 16.2042 28.6229 16.2389 28.9486 16.3082C29.2734 16.3775 29.5885 16.4798 29.8929 16.615C30.1974 16.7503 30.4856 16.9153 30.7567 17.1109C31.0278 17.3064 31.2761 17.5283 31.5024 17.7758Z" fill="white"/>
<path d="M52.6926 44.5256V43.3498H59.6987V44.5256H56.8741V52.4025H55.5127V44.5256H52.6926ZM61.8692 52.4025V43.3498H67.5448V44.5256H63.2351V47.2838H67.2487V48.4552H63.2351V51.2267H67.5979V52.4025H61.8692ZM77.5105 46.2937H76.1314C76.0783 45.999 75.9796 45.7397 75.8352 45.5157C75.6908 45.2918 75.514 45.1017 75.3048 44.9455C75.0956 44.7893 74.8613 44.6714 74.602 44.5919C74.3456 44.5123 74.073 44.4725 73.7842 44.4725C73.2626 44.4725 72.7956 44.6037 72.383 44.8659C71.9734 45.1282 71.6492 45.5128 71.4105 46.0196C71.1748 46.5265 71.0569 47.1453 71.0569 47.8761C71.0569 48.6128 71.1748 49.2346 71.4105 49.7415C71.6492 50.2483 71.9749 50.6314 72.3874 50.8907C72.8 51.15 73.2641 51.2797 73.7798 51.2797C74.0656 51.2797 74.3367 51.2414 74.5931 51.1648C74.8524 51.0852 75.0867 50.9688 75.2959 50.8156C75.5052 50.6623 75.682 50.4752 75.8264 50.2542C75.9737 50.0303 76.0754 49.7739 76.1314 49.4851L77.5105 49.4895C77.4368 49.9345 77.2939 50.3441 77.0817 50.7183C76.8725 51.0896 76.6029 51.4108 76.2728 51.682C75.9457 51.9501 75.5715 52.1579 75.1501 52.3052C74.7287 52.4525 74.269 52.5262 73.771 52.5262C72.9871 52.5262 72.2887 52.3406 71.6758 51.9693C71.0628 51.595 70.5795 51.0602 70.2259 50.3647C69.8753 49.6693 69.6999 48.8397 69.6999 47.8761C69.6999 46.9096 69.8767 46.08 70.2303 45.3875C70.584 44.6921 71.0672 44.1587 71.6802 43.7874C72.2931 43.4132 72.99 43.226 73.771 43.226C74.2513 43.226 74.6992 43.2953 75.1147 43.4338C75.5332 43.5693 75.9089 43.7697 76.2419 44.0349C76.5749 44.2972 76.8504 44.6184 77.0685 44.9985C77.2865 45.3757 77.4339 45.8075 77.5105 46.2937ZM79.7672 52.4025V43.3498H81.1331V47.2838H85.6462V43.3498H87.0164V52.4025H85.6462V48.4552H81.1331V52.4025H79.7672ZM96.9346 43.3498V52.4025H95.6792L91.0777 45.7632H90.9938V52.4025H89.6279V43.3498H90.8921L95.498 49.9978H95.582V43.3498H96.9346ZM107.413 47.8761C107.413 48.8427 107.236 49.6737 106.883 50.3691C106.529 51.0616 106.044 51.595 105.428 51.9693C104.815 52.3406 104.118 52.5262 103.338 52.5262C102.554 52.5262 101.854 52.3406 101.238 51.9693C100.625 51.595 100.142 51.0602 99.7881 50.3647C99.4344 49.6693 99.2576 48.8397 99.2576 47.8761C99.2576 46.9096 99.4344 46.08 99.7881 45.3875C100.142 44.6921 100.625 44.1587 101.238 43.7874C101.854 43.4132 102.554 43.226 103.338 43.226C104.118 43.226 104.815 43.4132 105.428 43.7874C106.044 44.1587 106.529 44.6921 106.883 45.3875C107.236 46.08 107.413 46.9096 107.413 47.8761ZM106.06 47.8761C106.06 47.1394 105.941 46.5191 105.702 46.0152C105.467 45.5083 105.142 45.1253 104.73 44.8659C104.32 44.6037 103.856 44.4725 103.338 44.4725C102.816 44.4725 102.35 44.6037 101.941 44.8659C101.531 45.1253 101.207 45.5083 100.968 46.0152C100.733 46.5191 100.615 47.1394 100.615 47.8761C100.615 48.6128 100.733 49.2346 100.968 49.7415C101.207 50.2454 101.531 50.6285 101.941 50.8907C102.35 51.15 102.816 51.2797 103.338 51.2797C103.856 51.2797 104.32 51.15 104.73 50.8907C105.142 50.6285 105.467 50.2454 105.702 49.7415C105.941 49.2346 106.06 48.6128 106.06 47.8761ZM109.738 52.4025V43.3498H111.104V51.2267H115.206V52.4025H109.738ZM124.898 47.8761C124.898 48.8427 124.721 49.6737 124.367 50.3691C124.014 51.0616 123.529 51.595 122.913 51.9693C122.3 52.3406 121.603 52.5262 120.822 52.5262C120.038 52.5262 119.338 52.3406 118.723 51.9693C118.11 51.595 117.626 51.0602 117.273 50.3647C116.919 49.6693 116.742 48.8397 116.742 47.8761C116.742 46.9096 116.919 46.08 117.273 45.3875C117.626 44.6921 118.11 44.1587 118.723 43.7874C119.338 43.4132 120.038 43.226 120.822 43.226C121.603 43.226 122.3 43.4132 122.913 43.7874C123.529 44.1587 124.014 44.6921 124.367 45.3875C124.721 46.08 124.898 46.9096 124.898 47.8761ZM123.545 47.8761C123.545 47.1394 123.426 46.5191 123.187 46.0152C122.951 45.5083 122.627 45.1253 122.215 44.8659C121.805 44.6037 121.341 44.4725 120.822 44.4725C120.301 44.4725 119.835 44.6037 119.425 44.8659C119.016 45.1253 118.692 45.5083 118.453 46.0152C118.217 46.5191 118.099 47.1394 118.099 47.8761C118.099 48.6128 118.217 49.2346 118.453 49.7415C118.692 50.2454 119.016 50.6285 119.425 50.8907C119.835 51.15 120.301 51.2797 120.822 51.2797C121.341 51.2797 121.805 51.15 122.215 50.8907C122.627 50.6285 122.951 50.2454 123.187 49.7415C123.426 49.2346 123.545 48.6128 123.545 47.8761ZM133.349 46.2097C133.264 45.9415 133.149 45.7014 133.005 45.4892C132.863 45.2741 132.694 45.0914 132.496 44.9411C132.299 44.7878 132.073 44.6714 131.82 44.5919C131.57 44.5123 131.294 44.4725 130.993 44.4725C130.484 44.4725 130.024 44.6037 129.614 44.8659C129.205 45.1282 128.881 45.5128 128.642 46.0196C128.406 46.5235 128.288 47.1409 128.288 47.8717C128.288 48.6055 128.408 49.2258 128.646 49.7326C128.885 50.2395 129.212 50.624 129.628 50.8863C130.043 51.1486 130.516 51.2797 131.046 51.2797C131.539 51.2797 131.967 51.1795 132.333 50.9791C132.701 50.7787 132.985 50.4959 133.186 50.1304C133.389 49.7621 133.491 49.3289 133.491 48.8309L133.844 48.8972H131.254V47.77H134.812V48.8C134.812 49.5602 134.65 50.2203 134.326 50.7802C134.005 51.3372 133.56 51.7674 132.991 52.0709C132.426 52.3745 131.777 52.5262 131.046 52.5262C130.227 52.5262 129.508 52.3376 128.889 51.9604C128.273 51.5832 127.793 51.0484 127.448 50.3559C127.104 49.6604 126.931 48.8353 126.931 47.8805C126.931 47.1586 127.031 46.5103 127.232 45.9356C127.432 45.361 127.714 44.8733 128.076 44.4725C128.441 44.0688 128.87 43.7609 129.362 43.5487C129.857 43.3336 130.398 43.226 130.985 43.226C131.474 43.226 131.929 43.2982 132.35 43.4426C132.775 43.587 133.152 43.7918 133.482 44.057C133.815 44.3223 134.091 44.6376 134.309 45.003C134.527 45.3654 134.674 45.7677 134.751 46.2097H133.349ZM138.535 43.3498V52.4025H137.169V43.3498H138.535ZM141.146 52.4025V43.3498H146.822V44.5256H142.512V47.2838H146.525V48.4552H142.512V51.2267H146.875V52.4025H141.146ZM154.206 45.7279C154.159 45.3094 153.964 44.9853 153.622 44.7554C153.281 44.5226 152.85 44.4062 152.332 44.4062C151.96 44.4062 151.639 44.4652 151.368 44.583C151.097 44.698 150.886 44.8571 150.736 45.0604C150.589 45.2608 150.515 45.4892 150.515 45.7456C150.515 45.9607 150.565 46.1463 150.665 46.3025C150.768 46.4587 150.902 46.5898 151.067 46.6959C151.235 46.7991 151.415 46.886 151.607 46.9567C151.798 47.0245 151.982 47.0805 152.159 47.1247L153.043 47.3545C153.332 47.4253 153.628 47.521 153.932 47.6419C154.235 47.7627 154.517 47.9218 154.776 48.1192C155.035 48.3167 155.245 48.5613 155.404 48.853C155.566 49.1447 155.647 49.4939 155.647 49.9006C155.647 50.4133 155.514 50.8686 155.249 51.2664C154.987 51.6643 154.605 51.9781 154.104 52.208C153.606 52.4378 153.004 52.5527 152.296 52.5527C151.619 52.5527 151.032 52.4452 150.537 52.2301C150.042 52.0149 149.654 51.7099 149.375 51.3151C149.095 50.9172 148.94 50.4458 148.91 49.9006H150.281C150.307 50.2277 150.413 50.5003 150.599 50.7183C150.788 50.9335 151.028 51.0941 151.319 51.2001C151.614 51.3033 151.937 51.3549 152.287 51.3549C152.674 51.3549 153.017 51.2944 153.317 51.1736C153.621 51.0499 153.86 50.8789 154.033 50.6609C154.207 50.4399 154.294 50.182 154.294 49.8873C154.294 49.6192 154.218 49.3996 154.064 49.2287C153.914 49.0578 153.709 48.9164 153.45 48.8044C153.194 48.6924 152.903 48.5937 152.579 48.5082L151.51 48.2165C150.785 48.019 150.21 47.7288 149.786 47.3457C149.364 46.9626 149.154 46.4558 149.154 45.8251C149.154 45.3035 149.295 44.8483 149.578 44.4593C149.861 44.0703 150.244 43.7682 150.727 43.5531C151.21 43.3351 151.756 43.226 152.363 43.226C152.976 43.226 153.516 43.3336 153.985 43.5487C154.456 43.7638 154.828 44.06 155.099 44.4372C155.37 44.8114 155.511 45.2417 155.523 45.7279H154.206ZM161.818 52.4025V43.3498H163.184V51.2267H167.286V52.4025H161.818ZM167.841 44.5256V43.3498H174.847V44.5256H172.022V52.4025H170.661V44.5256H167.841ZM179.948 52.4025H177.017V43.3498H180.041C180.928 43.3498 181.69 43.531 182.326 43.8935C182.963 44.253 183.45 44.7702 183.789 45.445C184.131 46.1169 184.302 46.9228 184.302 47.8629C184.302 48.8058 184.13 49.6162 183.785 50.294C183.443 50.9718 182.948 51.4934 182.3 51.8588C181.651 52.2212 180.867 52.4025 179.948 52.4025ZM178.383 51.209H179.873C180.562 51.209 181.136 51.0793 181.592 50.82C182.049 50.5577 182.391 50.1791 182.618 49.684C182.845 49.186 182.958 48.5789 182.958 47.8629C182.958 47.1527 182.845 46.5501 182.618 46.055C182.394 45.5599 182.059 45.1842 181.614 44.9278C181.169 44.6714 180.617 44.5433 179.957 44.5433H178.383V51.209ZM186.816 52.4864C186.575 52.4864 186.367 52.401 186.193 52.2301C186.019 52.0562 185.932 51.847 185.932 51.6024C185.932 51.3607 186.019 51.1545 186.193 50.9836C186.367 50.8097 186.575 50.7228 186.816 50.7228C187.058 50.7228 187.266 50.8097 187.439 50.9836C187.613 51.1545 187.7 51.3607 187.7 51.6024C187.7 51.7645 187.659 51.9133 187.576 52.0488C187.497 52.1814 187.391 52.2875 187.258 52.3671C187.126 52.4467 186.978 52.4864 186.816 52.4864Z" fill="#757575"/>
</svg>
