<svg width="145" height="48" viewBox="0 0 145 48" fill="none" xmlns="http://www.w3.org/2000/svg">
<g clip-path="url(#clip0_2343_36692)">
<path d="M43.4325 36.6331V23.9824C43.4325 21.0972 41.9842 20.1941 39.7112 20.1941C38.8232 20.2147 37.9521 20.4463 37.1665 20.8709C36.3765 21.2989 35.693 21.907 35.1688 22.6484V36.6331H29.918V7.92909H35.1688V18.5586C36.0447 17.5301 37.1276 16.7078 38.343 16.148C39.5527 15.5915 40.8667 15.3123 42.1929 15.3303C46.5717 15.3303 48.68 17.8263 48.68 21.8746V36.6355H43.4325V36.6331ZM62.2487 36.9877C56.1688 36.9877 51.7503 32.6161 51.7503 25.8235C51.7503 19.0321 56.0559 14.6628 62.2487 14.6628C68.2914 14.6628 72.5586 18.9178 72.5586 25.3546C72.5642 26.0614 72.5134 26.766 72.4074 27.4636H57.114C57.378 30.663 59.4941 32.4601 62.1494 32.4601C64.4156 32.4601 65.662 31.2889 66.3411 29.8579H72.0443C70.9106 33.8265 67.4364 36.9877 62.2498 36.9877H62.2487ZM57.1502 23.7977H67.0957C67.0201 20.9471 64.8295 19.1511 62.11 19.1511C59.5798 19.1511 57.5787 20.8305 57.1637 23.7965H57.1502V23.7977ZM75.2883 7.92909H80.405V36.6331H75.2883V7.92909ZM83.816 9.34512C83.816 7.55718 85.1753 6.15732 87.0636 6.15732C88.9507 6.15732 90.2972 7.54332 90.2972 9.34512C90.2972 11.1469 88.9011 12.5329 87.0511 12.5329C85.2012 12.5329 83.816 11.1204 83.816 9.34512ZM84.3823 15.0994H89.6681V36.6331H84.3823V15.0994Z" fill="#121212"/>
<path d="M109.788 25.2935C109.697 23.6583 109.004 22.1192 107.85 20.9853C106.705 19.8614 105.181 19.2334 103.595 19.232C102.01 19.2337 100.486 19.8617 99.3412 20.9853C98.1874 22.1192 97.4944 23.6583 97.4035 25.2935H92.6875C92.6839 22.2948 93.8323 19.4149 95.8843 17.2755C96.8914 16.2252 98.092 15.3907 99.4177 14.8203C100.743 14.2501 102.165 13.9554 103.603 13.9536C105.04 13.9555 106.463 14.2502 107.789 14.8204C109.113 15.3908 110.315 16.2252 111.322 17.2755C113.374 19.4148 114.522 22.2946 114.52 25.2935H109.788ZM103.833 37.3424C101.783 37.341 99.7768 36.7356 98.0533 35.5984C96.3145 34.4498 94.9276 32.8225 94.0519 30.9033L98.2936 28.8369C98.7841 29.8971 99.5509 30.7986 100.509 31.4426C101.458 32.0804 102.563 32.4325 103.699 32.4591C104.833 32.4839 105.952 32.1822 106.927 31.5882C107.911 30.9885 108.714 30.1229 109.248 29.0864L113.496 31.1562C112.591 33.0066 111.207 34.5668 109.494 35.6665C107.797 36.7553 105.836 37.3359 103.833 37.3424Z" fill="#121212"/>
</g>
<defs>
<clipPath id="clip0_2343_36692">
<rect width="144" height="48" fill="white" transform="translate(0.21875)"/>
</clipPath>
</defs>
</svg>
