<svg width="145" height="48" viewBox="0 0 145 48" fill="none" xmlns="http://www.w3.org/2000/svg">
<g clip-path="url(#clip0_2343_36657)">
<mask id="mask0_2343_36657" style="mask-type:luminance" maskUnits="userSpaceOnUse" x="8" y="3" width="128" height="42">
<path d="M135.781 3.29999H8.88086V44.7H135.781V3.29999Z" fill="white"/>
</mask>
<g mask="url(#mask0_2343_36657)">
<path d="M40.5306 19.2249C39.8489 19.8927 39.0088 20.3109 38.1288 20.4798C39.3551 23.7132 38.5597 27.4135 36.0423 29.8798C34.3048 31.582 31.9667 32.483 29.5996 32.483C28.5341 32.483 27.4632 32.2978 26.4382 31.9232C26.2675 32.7899 25.8398 33.6178 25.1547 34.2891C23.3299 36.0767 20.3716 36.0767 18.5468 34.2891C16.7221 32.5015 16.7221 29.6028 18.5468 27.8152C19.228 27.1479 20.0674 26.7299 20.9466 26.5608C19.6965 23.3171 20.4868 19.5948 23.0156 17.1172C25.5421 14.6418 29.3371 13.8666 32.6458 15.0867C32.8204 14.2309 33.2456 13.4145 33.9227 12.7509C35.7474 10.9633 38.7059 10.9633 40.5306 12.7509C42.3553 14.5386 42.3553 17.4372 40.5306 19.2249ZM29.529 3.29999C18.1253 3.29999 8.88086 12.357 8.88086 23.5296C8.88086 34.702 18.1253 43.759 29.529 43.759C40.9327 43.759 50.1771 34.702 50.1771 23.5296C50.1771 12.357 40.9327 3.29999 29.529 3.29999ZM31.9685 25.8885C30.6336 27.1965 28.4692 27.1965 27.1342 25.8885C25.7994 24.5807 25.7994 22.4602 27.1342 21.1523C28.4692 19.8445 30.6336 19.8445 31.9685 21.1523C33.3035 22.4602 33.3035 24.5807 31.9685 25.8885ZM35.0175 13.8236C34.3148 14.5121 33.9926 15.4975 34.1557 16.4597C34.2127 16.7746 34.1782 17.0986 34.0353 17.4009C33.8509 17.791 33.5227 18.071 33.141 18.2087C32.7586 18.3465 32.3225 18.3413 31.9238 18.1603C29.6855 17.1448 27.0096 17.6115 25.2648 19.321C23.5203 21.0301 23.0442 23.6514 24.0799 25.844C24.2672 26.2404 24.2692 26.6738 24.1224 27.0522C23.9797 27.4193 23.6971 27.7345 23.3046 27.9126C23.0885 28.0107 22.8611 28.0572 22.6375 28.0572C22.5312 28.0572 22.4267 28.0431 22.3236 28.0227C21.3021 27.8856 20.3469 28.1965 19.6539 28.8757C19.0711 29.4467 18.7501 30.2059 18.7501 31.0136C18.7501 31.821 19.0711 32.5801 19.6539 33.1514C20.8572 34.3297 22.8148 34.3297 24.0179 33.1514C24.7204 32.4625 25.0428 31.4772 24.8797 30.5154C24.8708 30.4627 24.8728 30.4113 24.8797 30.3611C24.861 30.1066 24.9054 29.844 25.0227 29.596C25.2063 29.2074 25.5329 28.9281 25.9127 28.7901C26.2962 28.6506 26.7338 28.6551 27.1342 28.8367C29.3725 29.8524 32.0483 29.3851 33.7931 27.676C35.5377 25.9668 36.0138 23.3454 34.9779 21.1529C34.7951 20.7661 34.7886 20.3435 34.9251 19.9716C35.0641 19.593 35.3512 19.2667 35.7533 19.0843C36.0357 18.9561 36.3367 18.9177 36.6243 18.9543C36.6688 18.9492 36.7141 18.9476 36.7606 18.954C37.7335 19.0899 38.6882 18.7784 39.3814 18.099C40.5845 16.9203 40.5845 15.0023 39.3814 13.8236C38.1783 12.6447 36.2206 12.6447 35.0175 13.8236ZM90.1064 29.6739C90.2219 29.6644 90.3087 29.6597 90.3664 29.6597V32.6322C89.6922 32.7642 89.1625 32.8302 88.7771 32.8302C87.4865 32.8302 86.4801 32.5094 85.7578 31.8678C85.0354 31.2262 84.6742 30.2258 84.6742 28.8671V12.1934H88.3149V28.2726C88.3149 28.7444 88.4112 29.0983 88.6038 29.3342C88.7964 29.5701 89.1817 29.688 89.7596 29.688C89.8751 29.688 89.9908 29.6833 90.1064 29.6739ZM92.1074 32.6604H95.7767V17.94H92.1074V32.6604ZM107.804 17.94H111.416V32.6604H108.411L108.151 30.7354C107.785 31.4526 107.217 32.014 106.446 32.4198C105.676 32.8256 104.808 33.0284 103.845 33.0284C102.247 33.0284 100.981 32.5472 100.046 31.5847C99.1121 30.6222 98.645 29.3483 98.645 27.7631V17.94H102.257V26.9704C102.257 28.8387 103.123 29.7729 104.857 29.7729C105.589 29.7729 106.205 29.5276 106.706 29.0369C107.438 28.3764 107.804 27.2725 107.804 25.7249V17.94ZM135.781 22.7242V32.6604H132.198V23.5169C132.198 22.5543 132.03 21.8372 131.692 21.3653C131.356 20.8935 130.753 20.6577 129.887 20.6577C128.943 20.6577 128.215 21.0587 127.705 21.8608C127.195 22.6628 126.939 23.5828 126.939 24.6208V32.6604H123.356V23.5169C123.356 22.5543 123.188 21.8372 122.851 21.3653C122.514 20.8935 121.912 20.6577 121.045 20.6577C120.101 20.6577 119.369 21.0587 118.849 21.8608C118.329 22.6628 118.069 23.5828 118.069 24.6208V32.6604H114.486V17.94H117.491L117.78 19.8933C118.743 18.3458 120.169 17.572 122.056 17.572C124.117 17.572 125.552 18.3741 126.361 19.9782C127.306 18.3741 128.818 17.572 130.897 17.572C132.458 17.572 133.662 18.039 134.509 18.9733C135.357 19.9075 135.781 21.1578 135.781 22.7242ZM91.9913 15.9018H95.8631V12.25H91.9913V15.9018ZM65.9074 19.0441C66.8127 20.0254 67.2654 21.2898 67.2654 22.8374V32.6604H63.6536V23.5734C63.6536 22.6675 63.4659 21.9834 63.0902 21.521C62.7146 21.0587 62.0741 20.8275 61.1688 20.8275C60.167 20.8275 59.4014 21.2473 58.8717 22.0872C58.3419 22.927 58.0771 23.866 58.0771 24.9039V32.6604H54.4653V12.2217H58.0771V19.497C58.5009 18.8931 59.0884 18.4212 59.8396 18.0815C60.5909 17.7419 61.3711 17.572 62.1801 17.572C63.7596 17.572 65.002 18.0627 65.9074 19.0441ZM72.7048 23.8282C72.7241 22.9223 72.9841 22.158 73.485 21.5352C74.0628 20.7803 74.9007 20.4029 75.9987 20.4029C76.9812 20.4029 77.742 20.6859 78.2813 21.2521C78.8785 21.8937 79.1866 22.7525 79.206 23.8282H72.7048ZM76.0276 17.572C74.0628 17.572 72.4639 18.1948 71.2312 19.4404C69.7864 20.8935 69.0641 22.8563 69.0641 25.3287C69.0641 27.8009 69.8347 29.7635 71.3756 31.2166C72.6663 32.4244 74.2457 33.0284 76.1142 33.0284C78.291 33.0284 79.9765 32.3396 81.1707 30.9619C81.922 30.075 82.3457 29.169 82.4421 28.2443H78.9748C78.84 28.7349 78.5992 29.1501 78.2524 29.4898C77.7709 29.9617 77.039 30.1976 76.0564 30.1976C75.2283 30.1976 74.4867 29.8956 73.8316 29.2916C73.0611 28.5746 72.6952 27.6121 72.7337 26.4042H82.7888C82.7888 26.1966 82.7985 25.8664 82.8177 25.4135C82.8755 23.3753 82.4421 21.6673 81.5175 20.2896C80.2846 18.4779 78.4548 17.572 76.0276 17.572Z" fill="#121212"/>
</g>
</g>
<defs>
<clipPath id="clip0_2343_36657">
<rect width="144" height="48" fill="white" transform="translate(0.78125)"/>
</clipPath>
</defs>
</svg>
