<svg width="16" height="17" viewBox="0 0 16 17" fill="none" xmlns="http://www.w3.org/2000/svg">
<path d="M14.6667 3.73329V11.66C14.6667 12.3066 14.14 12.9 13.4933 12.98L13.2867 13.0066C12.1933 13.1533 10.6533 13.6066 9.41333 14.1266C8.98 14.3066 8.5 13.98 8.5 13.5066V4.23329C8.5 3.98662 8.64 3.75995 8.86 3.63995C10.08 2.97995 11.9267 2.39329 13.18 2.28662H13.22C14.02 2.28662 14.6667 2.93329 14.6667 3.73329Z" fill="#5B52B6"/>
<path d="M7.14048 3.63995C5.92048 2.97995 4.07381 2.39329 2.82048 2.28662H2.77381C1.97381 2.28662 1.32715 2.93329 1.32715 3.73329V11.66C1.32715 12.3066 1.85382 12.9 2.50048 12.98L2.70715 13.0066C3.80048 13.1533 5.34048 13.6066 6.58048 14.1266C7.01381 14.3066 7.49381 13.98 7.49381 13.5066V4.23329C7.49381 3.97995 7.36048 3.75995 7.14048 3.63995ZM3.33381 5.65995H4.83382C5.10715 5.65995 5.33382 5.88662 5.33382 6.15995C5.33382 6.43995 5.10715 6.65995 4.83382 6.65995H3.33381C3.06048 6.65995 2.83381 6.43995 2.83381 6.15995C2.83381 5.88662 3.06048 5.65995 3.33381 5.65995ZM5.33382 8.65995H3.33381C3.06048 8.65995 2.83381 8.43995 2.83381 8.15995C2.83381 7.88662 3.06048 7.65995 3.33381 7.65995H5.33382C5.60715 7.65995 5.83382 7.88662 5.83382 8.15995C5.83382 8.43995 5.60715 8.65995 5.33382 8.65995Z" fill="#5B52B6"/>
</svg>
