<svg width="145" height="48" viewBox="0 0 145 48" fill="none" xmlns="http://www.w3.org/2000/svg">
<g clip-path="url(#clip0_2343_36665)">
<g clip-path="url(#clip1_2343_36665)">
<mask id="mask0_2343_36665" style="mask-type:luminance" maskUnits="userSpaceOnUse" x="0" y="14" width="145" height="20">
<path d="M144.594 14.1H0.59375V33.9H144.594V14.1Z" fill="white"/>
</mask>
<g mask="url(#mask0_2343_36665)">
<path d="M19.5142 20.0677L15.6266 23.9387L20.3545 33.8532C17.9943 33.8532 15.7544 33.8646 13.513 33.8307C13.3476 33.8307 13.1312 33.5388 13.0319 33.3307C11.9361 31.0404 10.8582 28.7403 9.77429 26.4436C9.65108 26.1839 9.52027 25.9291 9.29328 25.4758C8.51458 28.3791 7.78999 31.0791 7.04887 33.821H0.59375C1.00114 32.2291 1.40102 30.6662 1.79638 29.1001C2.52698 26.2581 3.26359 23.4162 3.98066 20.5694C4.08438 20.1549 4.21216 19.9435 4.67067 19.9452C9.48119 19.9661 14.2827 19.9597 19.0887 19.963C19.1428 19.9694 19.1909 19.9887 19.5142 20.0677ZM124.491 20.1742H141.302C140.851 21.8243 140.414 23.4372 139.918 25.0258C139.864 25.1985 139.439 25.3226 139.185 25.3242C136.479 25.3468 133.773 25.3678 131.067 25.3242C130.398 25.3113 130.178 25.5742 130.023 26.2113C129.458 28.5226 128.846 30.8178 128.25 33.1194C128.189 33.3484 128.117 33.5742 128.045 33.8145H121.158C122.273 29.2323 123.381 24.7081 124.491 20.1742ZM102.831 33.8307C103.954 29.2436 105.059 24.7339 106.173 20.1903H122.993C122.533 21.8129 122.103 23.4065 121.611 24.9774C121.555 25.1597 121.16 25.321 120.918 25.3226C118.187 25.3468 115.457 25.3645 112.727 25.3226C112.096 25.3113 111.864 25.5339 111.712 26.1581C111.138 28.521 110.523 30.8726 109.893 33.2178C109.829 33.4565 109.552 33.8049 109.37 33.8081C107.22 33.8468 105.072 33.8307 102.831 33.8307ZM83.5617 20.1597H90.1056C89.3268 23.0629 88.5632 25.9016 87.7574 28.8985H97.5796C96.2719 30.6323 95.1189 32.1727 93.9462 33.6952C93.858 33.8113 93.6348 33.8565 93.4755 33.8565H80.1808C80.1149 33.8422 80.0508 33.8195 79.99 33.7888L83.5617 20.1597ZM29.1307 33.7774L32.698 20.1678H39.2448C38.4675 23.0565 37.7009 25.9049 36.8997 28.8887H46.6981C46.1915 29.5759 45.8202 30.0872 45.4428 30.592C44.7363 31.5339 44.0418 32.4855 43.3082 33.4017C43.1368 33.6162 42.8332 33.8355 42.5896 33.8371C38.1835 33.8613 33.7758 33.8517 29.3697 33.8468C29.2884 33.8308 29.2084 33.8076 29.1307 33.7774ZM71.4888 20.2113C71.1881 21.1017 70.868 21.942 70.6124 22.8033C70.2276 24.1049 69.8066 25.4017 69.5436 26.7339C69.2429 28.2243 69.8442 28.9291 71.2573 28.9355C74.0354 28.9484 76.8195 28.9355 79.6442 28.9355C79.6516 29.1005 79.643 29.2659 79.6186 29.4291C79.2564 30.7404 78.903 32.0565 78.4957 33.3517C78.4398 33.4769 78.3569 33.5861 78.2539 33.6703C78.1509 33.7544 78.0307 33.811 77.9034 33.8355C74.572 33.8646 71.2378 33.9387 67.9095 33.8355C64.9841 33.7387 62.3338 31.0291 63.2763 27.3033C63.8266 25.1275 64.3001 22.9306 64.8037 20.7419C64.8849 20.3888 64.954 20.1065 65.405 20.1129C67.3081 20.142 69.2128 20.1259 71.1175 20.1307C71.2432 20.1459 71.3675 20.1729 71.4888 20.2113Z" fill="#121212"/>
<path d="M48.6602 28.0517H43.7189C44.4074 25.3646 45.0718 22.7872 45.7349 20.1839H52.22C51.4789 23.0871 50.7497 25.9356 49.9937 28.8937H59.6913C58.7413 30.1533 57.8198 31.2146 57.0771 32.4017C56.3345 33.5888 55.4521 33.9404 54.1427 33.8936C51.0159 33.7791 47.8845 33.8565 44.5667 33.8565C45.9498 31.8969 47.2561 30.042 48.6602 28.0517ZM27.6532 33.8356H21.1711C21.2793 33.3662 21.371 32.9372 21.4718 32.513C22.4504 28.6323 23.4441 24.7566 24.3881 20.8743C24.5309 20.2855 24.7714 20.134 25.3081 20.1436C27.2068 20.1775 29.1069 20.1566 31.1214 20.1566C29.9579 24.7452 28.8093 29.2775 27.6532 33.8356ZM124.601 14.1533C124.195 15.5759 123.834 16.9356 123.399 18.2662C123.332 18.471 122.908 18.6517 122.648 18.6549C119.19 18.6791 115.732 18.671 112.282 18.671H106.55C106.923 17.121 107.275 15.6533 107.636 14.1549L124.601 14.1533ZM142.932 14.1001C142.508 15.5937 142.154 16.9339 141.728 18.2469C141.66 18.4549 141.244 18.6501 140.99 18.6533C138.483 18.684 135.978 18.671 133.473 18.671H124.874C125.231 17.1872 125.541 15.7872 125.926 14.4098C125.973 14.2485 126.406 14.1146 126.662 14.113C131.547 14.0969 136.433 14.0925 141.318 14.1001H142.932ZM101.286 33.8291H95.4514L99.748 28.013H96.2605C96.931 25.3162 97.5682 22.7533 98.2045 20.192H104.668C103.535 24.771 102.413 29.292 101.286 33.8291ZM83.5004 14.1646C83.1306 15.6823 82.7728 17.1469 82.4061 18.6501H65.3708C65.5061 16.7388 67.6618 14.4984 69.6867 14.1824C69.9586 14.134 70.2334 14.1065 70.509 14.1001H82.9742C83.111 14.1001 83.2539 14.1356 83.5004 14.1646ZM24.6137 14.1146C23.3899 15.5259 22.1377 16.984 20.8644 18.4179C20.6978 18.5737 20.4842 18.6597 20.2631 18.6598C17.5377 18.6824 14.8107 18.684 12.0852 18.6856C12.0461 18.6856 12.0085 18.6388 11.8973 18.5646C13.3179 17.1227 14.725 15.6888 16.1411 14.2775C16.3043 14.1594 16.4993 14.1027 16.6958 14.1162C19.322 14.1066 21.9573 14.1162 24.576 14.1162C24.6467 14.1001 24.7144 14.1404 24.6137 14.1146ZM24.9669 18.6969C25.3367 17.2452 25.6765 15.8759 26.0463 14.513C26.0898 14.3517 26.2943 14.1259 26.4266 14.1243C28.4711 14.1001 30.5096 14.1001 32.6442 14.1001C32.2638 15.5792 31.9256 16.9469 31.5498 18.3017C31.5079 18.3981 31.4452 18.4822 31.3666 18.547C31.2881 18.6119 31.1963 18.6555 31.0988 18.6743C29.0723 18.7066 27.0519 18.6969 24.9669 18.6969ZM4.38086 18.6969C4.75368 17.2356 5.09943 15.8404 5.47826 14.455C5.51726 14.3666 5.57567 14.2898 5.64847 14.2311C5.72127 14.1724 5.80628 14.1335 5.89617 14.1178C7.91809 14.1001 9.93852 14.1001 12.0551 14.1001C11.6733 15.5937 11.3276 16.984 10.9487 18.3646C10.9079 18.4511 10.8482 18.5256 10.7745 18.5817C10.701 18.638 10.6158 18.6742 10.5263 18.6872C8.50137 18.705 6.47494 18.6969 4.38086 18.6969ZM53.818 14.1081L52.6349 18.6679H46.1437C46.509 17.2324 46.8578 15.8388 47.2306 14.4534C47.2606 14.3737 47.308 14.3029 47.3686 14.2467C47.4293 14.1906 47.5015 14.1509 47.5793 14.1307C49.6238 14.1001 51.6668 14.1081 53.818 14.1081ZM83.9048 18.6969C84.2821 17.2291 84.6294 15.834 85.0112 14.4485C85.0509 14.361 85.1099 14.2852 85.1829 14.2276C85.2559 14.17 85.341 14.1323 85.4306 14.1178C87.4496 14.1001 89.47 14.1001 91.5823 14.1001C91.2007 15.5969 90.8542 16.9872 90.4757 18.3662C90.435 18.453 90.375 18.5278 90.3011 18.5841C90.2273 18.6403 90.1416 18.6762 90.0518 18.6888C88.0268 18.705 86.0019 18.6969 83.9048 18.6969ZM39.5398 18.6743H33.0411C33.4154 17.2227 33.7657 15.813 34.1519 14.4162C34.1979 14.3319 34.2621 14.2608 34.339 14.2086C34.4159 14.1564 34.5033 14.1248 34.5939 14.1162C36.5903 14.1001 38.5867 14.1001 40.7078 14.1001C40.305 15.6808 39.9261 17.1646 39.5398 18.6743ZM105.072 18.6759H98.5735C98.8507 17.5872 99.1108 16.5485 99.3763 15.5114C99.7372 14.1001 99.739 14.1001 101.074 14.1001H106.23C105.824 15.6759 105.455 17.155 105.072 18.6759Z" fill="#121212"/>
</g>
</g>
</g>
<defs>
<clipPath id="clip0_2343_36665">
<rect width="144" height="48" fill="white" transform="translate(0.59375)"/>
</clipPath>
<clipPath id="clip1_2343_36665">
<rect width="144" height="43.2" fill="white" transform="translate(0.59375 2.39999)"/>
</clipPath>
</defs>
</svg>
