<svg width="16" height="17" viewBox="0 0 16 17" fill="none" xmlns="http://www.w3.org/2000/svg">
<path d="M11.2204 10.9266C11.6671 10.6333 12.2537 10.9533 12.2537 11.4866V12.3466C12.2537 13.1933 11.5937 14.1 10.8004 14.3666L8.67374 15.0733C8.3004 15.2 7.69374 15.2 7.32707 15.0733L5.2004 14.3666C4.4004 14.1 3.74707 13.1933 3.74707 12.3466V11.48C3.74707 10.9533 4.33374 10.6333 4.77374 10.92L6.14707 11.8133C6.67374 12.1666 7.3404 12.34 8.00707 12.34C8.67374 12.34 9.3404 12.1666 9.86707 11.8133L11.2204 10.9266Z" fill="#5B52B6"/>
<path d="M13.32 4.80666L9.32668 2.18666C8.60668 1.71333 7.42001 1.71333 6.70001 2.18666L2.68668 4.80666C1.40001 5.64 1.40001 7.52666 2.68668 8.36666L3.75335 9.06L6.70001 10.98C7.42001 11.4533 8.60668 11.4533 9.32668 10.98L12.2533 9.06L13.1667 8.46V10.5C13.1667 10.7733 13.3933 11 13.6667 11C13.94 11 14.1667 10.7733 14.1667 10.5V7.22C14.4333 6.36 14.16 5.36 13.32 4.80666Z" fill="#5B52B6"/>
</svg>
