<svg width="53" height="52" viewBox="0 0 53 52" fill="none" xmlns="http://www.w3.org/2000/svg">
<rect x="0.5" width="52" height="52" rx="26" fill="#E4F2FF"/>
<path d="M22.4038 23.1447C23.8467 23.1447 24.9761 22.013 24.9761 20.5694C24.9761 19.1317 23.8467 18 22.4038 18C20.9608 18 19.832 19.1317 19.832 20.5694C19.832 22.013 20.9608 23.1447 22.4038 23.1447Z" fill="#399AF9"/>
<path d="M23.2195 23.647H21.5884C19.6431 23.647 18.0748 25.0905 17.8242 26.9729H26.9837C26.7325 25.0905 25.1642 23.647 23.2195 23.647Z" fill="#399AF9"/>
<path d="M27.3604 27.7871H17.3851C16.8204 27.7871 16.4439 28.2895 16.5069 28.7918L17.1969 33.2437C17.2598 33.6825 17.6363 34 18.0751 34H26.6704C27.1093 34 27.4857 33.6825 27.5487 33.2437L28.2387 28.7918C28.364 28.2895 27.9251 27.7871 27.3604 27.7871Z" fill="#399AF9"/>
<path d="M30.8741 18.0635L27.9258 21.8282H29.6823V34H32.0035V21.8282H33.8229L30.8741 18.0635Z" fill="#399AF9"/>
</svg>
