<svg width="145" height="48" viewBox="0 0 145 48" fill="none" xmlns="http://www.w3.org/2000/svg">
<g clip-path="url(#clip0_2343_36703)">
<mask id="mask0_2343_36703" style="mask-type:luminance" maskUnits="userSpaceOnUse" x="4" y="11" width="137" height="26">
<path d="M140.281 11.4H4.38086V36.6H140.281V11.4Z" fill="white"/>
</mask>
<g mask="url(#mask0_2343_36703)">
<path fill-rule="evenodd" clip-rule="evenodd" d="M30.2175 11.4L10.8385 17.1348L4.38086 36.8942L24.4036 31.1582L30.2175 11.4ZM17.2986 27.3339C18.1553 27.3339 18.9768 26.9981 19.5826 26.4003C20.1883 25.8025 20.5287 24.9919 20.5287 24.1465C20.5287 23.3011 20.1883 22.4904 19.5826 21.8927C18.9768 21.295 18.1553 20.9592 17.2986 20.9592C16.4421 20.9592 15.6207 21.2949 15.0151 21.8926C14.4094 22.4902 14.0692 23.3007 14.0692 24.1459C14.0692 24.9911 14.4094 25.8017 15.0151 26.3993C15.6207 26.9969 16.4421 27.3327 17.2986 27.3327V27.3339Z" fill="#121212"/>
<path d="M114.366 25.8214V34.8124H118.868V24.8494C118.868 20.8225 117.637 17.6983 112.747 17.6983C110.284 17.6983 108.561 18.7744 107.646 20.5449H107.54L107.576 18.0107H103.072V34.8124H107.576V26.4463C107.576 23.6344 108.526 21.3433 111.305 21.3433C113.908 21.3433 114.366 23.322 114.366 25.8214ZM94.8159 32.8696L94.887 34.8136H99.2133V25.1977C99.2133 22.3512 98.5806 20.8237 97.3494 19.6435C96.0831 18.4632 94.3587 17.6995 91.3338 17.6995C88.3784 17.6995 85.9863 18.7062 84.6846 19.4698L86.0566 22.3165C86.7954 21.761 88.6599 20.9278 90.9117 20.9278C93.2688 20.9278 94.7106 21.9346 94.7106 24.0868V24.5382L90.63 24.8158C87.112 25.0588 83.6293 26.4127 83.6293 29.9188C83.6293 33.425 86.3029 35.1955 89.6097 35.1955C92.1429 35.1955 94.113 34.0846 94.8159 32.8696ZM91.6857 27.4195L94.7457 27.2458V30.3355C94.1481 31.1686 92.8458 32.1753 91.0872 32.1753C89.2227 32.1753 88.1322 31.2033 88.1322 29.78C88.1322 28.3567 89.2931 27.5583 91.6857 27.4195ZM61.5591 27.4854H74.0828C74.0828 27.4854 74.1532 26.0968 74.1532 25.2289C74.1532 20.7508 70.9871 17.3488 65.7454 17.3488C60.8907 17.3488 56.9155 20.9591 56.9155 26.3398C56.9155 31.7553 60.7149 34.8448 65.851 34.8448C70.0021 34.8448 72.5702 33.1091 73.52 32.1371L71.7611 29.7418C70.9519 30.4361 68.9115 31.4428 66.6249 31.4428C64.0568 31.4428 61.9812 30.1584 61.5591 27.4854ZM65.7102 20.6467C68.8764 20.6467 69.58 22.7643 69.6503 24.6041H61.4888C61.6295 22.4866 63.0367 20.6467 65.7102 20.6467ZM45.9502 13.0998V31.0633H54.4284V34.8124H41.4121V13.0998H45.9502ZM80.6085 13.0998V34.8124H76.1409V13.0998H80.6085Z" fill="#121212"/>
<path fill-rule="evenodd" clip-rule="evenodd" d="M140.167 13.0998V34.8124H135.91L135.875 32.1742H135.77C134.397 34.3264 132.287 35.1943 129.93 35.1943C124.935 35.1943 121.873 31.3757 121.873 26.3769C121.873 21.621 125.075 17.6983 130.247 17.6983C132.534 17.6983 134.469 18.5314 135.665 20.3365H135.735C135.7 19.5729 135.7 18.6703 135.7 17.49V13.0998H140.167ZM126.448 26.3769C126.448 29.2929 128.277 31.584 131.196 31.584C133.905 31.584 135.805 29.5359 135.805 26.3769C135.805 23.565 133.94 21.1003 131.056 21.1003C128.136 21.1003 126.448 23.565 126.448 26.3769Z" fill="#121212"/>
</g>
</g>
<defs>
<clipPath id="clip0_2343_36703">
<rect width="144" height="48" fill="white" transform="translate(0.78125)"/>
</clipPath>
</defs>
</svg>
