<svg width="53" height="52" viewBox="0 0 53 52" fill="none" xmlns="http://www.w3.org/2000/svg">
<rect x="0.5" width="52" height="52" rx="26" fill="#DDFDFC"/>
<path d="M26.498 16.0494C31.5514 16.5511 35.498 20.8147 35.498 26V27H26.498V33C26.498 34.1046 27.3935 35 28.498 35C29.6026 35 30.498 34.1046 30.498 33V32H32.498V33C32.498 35.2091 30.7072 37 28.498 37C26.2889 37 24.498 35.2091 24.498 33V27H15.498V26C15.498 20.8147 19.4447 16.5511 24.498 16.0494V16C24.498 15.4477 24.9458 15 25.498 15C26.0503 15 26.498 15.4477 26.498 16V16.0494Z" fill="#12D5D5"/>
</svg>
