<svg width="145" height="48" viewBox="0 0 145 48" fill="none" xmlns="http://www.w3.org/2000/svg">
<g clip-path="url(#clip0_2343_36674)">
<g clip-path="url(#clip1_2343_36674)">
<mask id="mask0_2343_36674" style="mask-type:luminance" maskUnits="userSpaceOnUse" x="0" y="13" width="145" height="26">
<path d="M144.406 13.2H0.40625V38.4H144.406V13.2Z" fill="white"/>
</mask>
<g mask="url(#mask0_2343_36674)">
<path d="M112.841 13.2H109.57V32.4972H112.841V13.2Z" fill="#121212"/>
<path d="M83.8026 32.5034V26.4713L89.9861 32.51H94.3541L87.1246 25.4299L93.9986 19.2382H89.7295L83.8026 24.6414V13.2061H80.584V32.5034H83.8026Z" fill="#121212"/>
<path fill-rule="evenodd" clip-rule="evenodd" d="M69.8963 32.7799C72.7581 32.7799 74.009 30.9167 74.265 30.3911L74.2684 32.4871H77.5092V19.2152H74.2391V21.2115C73.9604 20.6625 72.6576 18.9291 69.9223 18.9291C66.5745 18.9291 63.8164 21.5309 63.8164 25.8562C63.8164 30.1814 66.5744 32.7799 69.8963 32.7799ZM67.1383 25.8595C67.1383 23.5971 68.5676 21.867 70.7649 21.867V21.8803C72.8845 21.8803 74.2911 23.5971 74.2911 25.8595C74.2911 28.1219 72.8845 29.852 70.7649 29.852C68.5676 29.852 67.1383 28.1219 67.1383 25.8595Z" fill="#121212"/>
<path d="M42.5475 32.5043H39.3066V19.2325H42.5475V21.4616C42.974 20.6937 43.5916 20.0559 44.337 19.6134C45.0824 19.1708 45.929 18.9395 46.79 18.9431C49.0101 18.9431 50.6791 20.0976 51.4894 21.9075C51.9222 20.9979 52.6003 20.2351 53.4431 19.7096C54.2859 19.1841 55.258 18.918 56.2437 18.9431C59.5138 18.9431 61.6075 21.3818 61.6075 24.7655V32.5043H58.3374V25.4242C58.3374 23.3249 57.1869 21.9341 55.2715 21.9341C53.3561 21.9341 52.0758 23.3514 52.0758 25.4242V32.5043H48.8026V25.4242C48.8026 23.3249 47.6553 21.9341 45.7367 21.9341C43.8181 21.9341 42.5444 23.3514 42.5444 25.4242L42.5475 32.5043Z" fill="#121212"/>
<path fill-rule="evenodd" clip-rule="evenodd" d="M107.271 26.4309V26.065C107.271 21.7397 104.454 18.8983 100.494 18.8983C96.5335 18.8983 93.7246 21.7664 93.7246 25.8853C93.7246 29.8778 96.5596 32.8722 100.75 32.8722C105.145 32.8722 106.908 30.0109 107.112 28.6468H103.891C103.667 29.0161 102.818 30.0907 100.75 30.0907C100.269 30.105 99.7897 30.0214 99.3415 29.8449C98.8915 29.6684 98.4802 29.4025 98.131 29.0624C97.7827 28.7223 97.5019 28.3147 97.3066 27.8632C97.1113 27.4115 97.006 26.9248 96.9943 26.4309H107.271ZM103.849 24.1219H97.1014V24.1086C97.51 22.4584 98.7376 21.4868 100.501 21.5002C102.159 21.5002 103.363 22.4584 103.849 24.1219Z" fill="#121212"/>
<path fill-rule="evenodd" clip-rule="evenodd" d="M129.055 25.8699C129.055 29.909 126.038 32.8569 122.103 32.8569C118.12 32.8569 115.129 29.919 115.129 25.8699C115.129 21.8208 118.12 18.883 122.103 18.883C126.038 18.8929 129.055 21.8275 129.055 25.8699ZM125.759 25.8699C125.759 23.6108 124.275 21.8773 122.103 21.8773C119.931 21.8773 118.425 23.6608 118.425 25.8699C118.425 28.079 119.931 29.8625 122.103 29.8625C124.275 29.8625 125.759 28.1257 125.759 25.8699Z" fill="#121212"/>
<path fill-rule="evenodd" clip-rule="evenodd" d="M141.162 30.3285C140.881 30.9041 139.526 32.7407 136.715 32.7407C133.342 32.7407 130.559 30.1455 130.559 25.8435C130.559 21.5416 133.342 18.9431 136.715 18.9431C139.526 18.9431 140.855 20.7531 141.137 21.2522V19.2327H144.407V32.2084C144.407 35.8682 142.138 38.4001 137.455 38.4001C132.474 38.4001 130.864 35.226 130.649 34.2546H134.406C134.416 34.2679 134.428 34.2835 134.441 34.3009C134.686 34.6266 135.434 35.6186 137.445 35.6186C139.798 35.6186 141.153 34.361 141.153 32.1585L141.162 30.3285ZM137.559 21.881C135.31 21.881 133.88 23.6111 133.88 25.8435C133.88 28.0761 135.31 29.8029 137.559 29.8029C139.756 29.8029 141.188 28.0461 141.188 25.8435C141.188 23.6411 139.756 21.881 137.559 21.881Z" fill="#121212"/>
<path d="M5.59173 13.9044H0.40625V19.2278H5.59173V13.9044Z" fill="#121212"/>
<path d="M10.7871 13.9044V19.2278H15.9726V32.5362H21.1581V24.5511C21.1581 21.7275 20.0655 19.0194 18.1206 17.0227C16.1756 15.0261 13.5377 13.9044 10.7871 13.9044Z" fill="#121212"/>
<path d="M21.1582 13.9044V19.2278H26.3436V32.5362H31.5291V24.5511C31.5291 21.7275 30.4365 19.0194 28.4916 17.0227C26.5467 15.0261 23.9088 13.9044 21.1582 13.9044Z" fill="#121212"/>
<path d="M10.7773 19.2292H5.5918V32.5377H10.7773V19.2292Z" fill="#121212"/>
</g>
</g>
</g>
<defs>
<clipPath id="clip0_2343_36674">
<rect width="144" height="48" fill="white" transform="translate(0.40625)"/>
</clipPath>
<clipPath id="clip1_2343_36674">
<rect width="144" height="43.2" fill="white" transform="translate(0.40625 2.39999)"/>
</clipPath>
</defs>
</svg>
