<svg width="53" height="52" viewBox="0 0 53 52" fill="none" xmlns="http://www.w3.org/2000/svg">
<rect x="0.5" width="52" height="52" rx="26" fill="#F0F0F9"/>
<path d="M21.74 16H19.84C17.65 16 16.5 17.15 16.5 19.33V21.23C16.5 23.41 17.65 24.56 19.83 24.56H21.73C23.91 24.56 25.06 23.41 25.06 21.23V19.33C25.07 17.15 23.92 16 21.74 16Z" fill="#3A3285"/>
<path d="M33.1695 16H31.2695C29.0895 16 27.9395 17.15 27.9395 19.33V21.23C27.9395 23.41 29.0895 24.56 31.2695 24.56H33.1695C35.3495 24.56 36.4995 23.41 36.4995 21.23V19.33C36.4995 17.15 35.3495 16 33.1695 16Z" fill="#3A3285"/>
<path d="M33.1695 27.4301H31.2695C29.0895 27.4301 27.9395 28.5801 27.9395 30.7601V32.6601C27.9395 34.8401 29.0895 35.9901 31.2695 35.9901H33.1695C35.3495 35.9901 36.4995 34.8401 36.4995 32.6601V30.7601C36.4995 28.5801 35.3495 27.4301 33.1695 27.4301Z" fill="#3A3285"/>
<path d="M21.74 27.4301H19.84C17.65 27.4301 16.5 28.5801 16.5 30.7601V32.6601C16.5 34.8501 17.65 36.0001 19.83 36.0001H21.73C23.91 36.0001 25.06 34.8501 25.06 32.6701V30.7701C25.07 28.5801 23.92 27.4301 21.74 27.4301Z" fill="#3A3285"/>
</svg>
