<svg width="130" height="55" viewBox="0 0 130 55" fill="none" xmlns="http://www.w3.org/2000/svg">
<g clip-path="url(#clip0_520_6903)">
<path d="M7.5855 53.8538C6.02815 53.8538 4.6871 53.4861 3.56235 52.7506C2.4376 52.0152 1.57241 51.0022 0.966776 49.7117C0.361141 48.4211 0.0583236 46.9466 0.0583236 45.2884C0.0583236 43.6012 0.368351 42.1124 0.988406 40.8218C1.61567 39.524 2.48807 38.511 3.60561 37.7828C4.73036 37.0474 6.04257 36.6797 7.54224 36.6797C8.71025 36.6797 9.7629 36.896 10.7002 37.3286C11.6375 37.7612 12.4053 38.3668 13.0038 39.1455C13.6022 39.9242 13.9735 40.8326 14.1177 41.8708H11.5654C11.3707 41.1138 10.9381 40.4433 10.2676 39.8593C9.60428 39.2681 8.71025 38.9725 7.5855 38.9725C6.59053 38.9725 5.71813 39.232 4.96829 39.7511C4.22567 40.263 3.64527 40.9876 3.22709 41.9249C2.81613 42.855 2.61064 43.9473 2.61064 45.2018C2.61064 46.4852 2.81252 47.6027 3.21628 48.5545C3.62724 49.5062 4.20404 50.2452 4.94666 50.7715C5.6965 51.2978 6.57611 51.561 7.5855 51.561C8.24881 51.561 8.85084 51.4456 9.39159 51.2149C9.93234 50.9842 10.3902 50.6526 10.7651 50.22C11.14 49.7874 11.4068 49.2682 11.5654 48.6626H14.1177C13.9735 49.6432 13.6166 50.5264 13.047 51.3123C12.4847 52.0909 11.7384 52.711 10.8083 53.1724C9.88547 53.6267 8.81119 53.8538 7.5855 53.8538ZM24.5974 53.8538C23.0977 53.8538 21.7819 53.4969 20.6499 52.7831C19.5252 52.0693 18.6455 51.0707 18.0111 49.7874C17.3838 48.504 17.0702 47.0043 17.0702 45.2884C17.0702 43.558 17.3838 42.0475 18.0111 40.7569C18.6455 39.4663 19.5252 38.4642 20.6499 37.7504C21.7819 37.0366 23.0977 36.6797 24.5974 36.6797C26.097 36.6797 27.4092 37.0366 28.534 37.7504C29.6659 38.4642 30.5456 39.4663 31.1728 40.7569C31.8073 42.0475 32.1245 43.558 32.1245 45.2884C32.1245 47.0043 31.8073 48.504 31.1728 49.7874C30.5456 51.0707 29.6659 52.0693 28.534 52.7831C27.4092 53.4969 26.097 53.8538 24.5974 53.8538ZM24.5974 51.561C25.7365 51.561 26.6738 51.269 27.4092 50.685C28.1446 50.101 28.689 49.3331 29.0423 48.3814C29.3956 47.4297 29.5722 46.3987 29.5722 45.2884C29.5722 44.178 29.3956 43.1434 29.0423 42.1845C28.689 41.2256 28.1446 40.4505 27.4092 39.8593C26.6738 39.2681 25.7365 38.9725 24.5974 38.9725C23.4582 38.9725 22.5209 39.2681 21.7855 39.8593C21.0501 40.4505 20.5057 41.2256 20.1524 42.1845C19.7991 43.1434 19.6225 44.178 19.6225 45.2884C19.6225 46.3987 19.7991 47.4297 20.1524 48.3814C20.5057 49.3331 21.0501 50.101 21.7855 50.685C22.5209 51.269 23.4582 51.561 24.5974 51.561ZM38.5729 43.5147V53.5077H36.0206V36.896H38.4864V39.4916H38.7027C39.092 38.648 39.6832 37.9703 40.4763 37.4584C41.2694 36.9392 42.2932 36.6797 43.5478 36.6797C44.6725 36.6797 45.6567 36.9104 46.5002 37.3718C47.3438 37.8261 47.9999 38.5182 48.4686 39.4483C48.9372 40.3712 49.1715 41.5392 49.1715 42.9523V53.5077H46.6192V43.1254C46.6192 41.8204 46.2803 40.8038 45.6026 40.0756C44.9249 39.3402 43.9948 38.9725 42.8124 38.9725C41.9976 38.9725 41.2694 39.1491 40.6278 39.5024C39.9933 39.8557 39.4922 40.3712 39.1245 41.0489C38.7568 41.7266 38.5729 42.5486 38.5729 43.5147ZM65.6021 40.6163L63.3093 41.2652C63.1651 40.8831 62.9524 40.5118 62.6712 40.1513C62.3973 39.7836 62.0223 39.4808 61.5465 39.2428C61.0706 39.0049 60.4614 38.8859 59.7188 38.8859C58.7022 38.8859 57.855 39.1203 57.1773 39.5889C56.5067 40.0503 56.1715 40.6379 56.1715 41.3517C56.1715 41.9862 56.4022 42.4873 56.8636 42.855C57.3251 43.2227 58.0461 43.5291 59.0266 43.7743L61.4924 44.3799C62.9777 44.7404 64.0844 45.292 64.8126 46.0346C65.5408 46.77 65.9049 47.7181 65.9049 48.8789C65.9049 49.8306 65.6309 50.6814 65.083 51.4312C64.5422 52.1811 63.7852 52.7723 62.8118 53.2049C61.8385 53.6375 60.7065 53.8538 59.416 53.8538C57.7216 53.8538 56.3193 53.4861 55.209 52.7506C54.0986 52.0152 53.3957 50.941 53.1 49.5278L55.5226 48.9222C55.7533 49.8162 56.1895 50.4867 56.8312 50.9337C57.4801 51.3808 58.3273 51.6043 59.3727 51.6043C60.5623 51.6043 61.5068 51.3519 62.2062 50.8472C62.9128 50.3353 63.2661 49.7225 63.2661 49.0087C63.2661 48.4319 63.0642 47.9488 62.6604 47.5595C62.2567 47.1629 61.6366 46.8673 60.8003 46.6727L58.0316 46.0238C56.5103 45.6633 55.3928 45.1045 54.679 44.3475C53.9724 43.5832 53.6192 42.6279 53.6192 41.4815C53.6192 40.5442 53.8823 39.7151 54.4086 38.9941C54.9422 38.2731 55.6668 37.7071 56.5824 37.2961C57.5053 36.8852 58.5508 36.6797 59.7188 36.6797C61.3626 36.6797 62.6532 37.0402 63.5905 37.7612C64.535 38.4822 65.2055 39.4339 65.6021 40.6163ZM80.2157 46.7159V36.896H82.768V53.5077H80.2157V50.6958H80.0427C79.6534 51.5394 79.0477 52.2568 78.2258 52.848C77.4038 53.432 76.3656 53.724 75.1111 53.724C74.0729 53.724 73.15 53.4969 72.3425 53.0426C71.535 52.5812 70.9005 51.8891 70.439 50.9662C69.9776 50.0361 69.7469 48.8645 69.7469 47.4513V36.896H72.2992V47.2783C72.2992 48.4896 72.6381 49.4557 73.3158 50.1767C74.0008 50.8977 74.8732 51.2582 75.933 51.2582C76.5675 51.2582 77.2128 51.096 77.8689 50.7715C78.5322 50.4471 79.0874 49.9496 79.5344 49.2791C79.9886 48.6085 80.2157 47.7542 80.2157 46.7159ZM89.9951 31.3588V53.5077H87.4428V31.3588H89.9951ZM101.894 36.896V39.059H93.2855V36.896H101.894ZM95.7946 32.9161H98.3469V48.7491C98.3469 49.4701 98.4515 50.0109 98.6606 50.3714C98.8769 50.7247 99.1508 50.9626 99.4825 51.0852C99.8214 51.2005 100.178 51.2582 100.553 51.2582C100.834 51.2582 101.065 51.2438 101.245 51.2149C101.426 51.1789 101.57 51.15 101.678 51.1284L102.197 53.4212C102.024 53.4861 101.782 53.551 101.472 53.6158C101.162 53.6879 100.769 53.724 100.294 53.724C99.5726 53.724 98.866 53.569 98.1739 53.2589C97.4889 52.9489 96.9194 52.4767 96.4651 51.8422C96.0181 51.2077 95.7946 50.4074 95.7946 49.4413V32.9161ZM105.734 53.5077V36.896H108.286V53.5077H105.734ZM107.031 34.1274C106.534 34.1274 106.105 33.9579 105.744 33.6191C105.391 33.2802 105.214 32.8728 105.214 32.397C105.214 31.9211 105.391 31.5138 105.744 31.1749C106.105 30.836 106.534 30.6666 107.031 30.6666C107.529 30.6666 107.954 30.836 108.307 31.1749C108.668 31.5138 108.848 31.9211 108.848 32.397C108.848 32.8728 108.668 33.2802 108.307 33.6191C107.954 33.9579 107.529 34.1274 107.031 34.1274ZM117.849 53.897C116.796 53.897 115.841 53.6988 114.983 53.3022C114.125 52.8985 113.444 52.3181 112.939 51.561C112.434 50.7968 112.182 49.8739 112.182 48.7924C112.182 47.8407 112.369 47.0692 112.744 46.478C113.119 45.8796 113.62 45.4109 114.248 45.0721C114.875 44.7332 115.567 44.4808 116.324 44.315C117.088 44.142 117.856 44.005 118.628 43.9041C119.637 43.7743 120.455 43.6769 121.083 43.612C121.717 43.5399 122.178 43.421 122.467 43.2552C122.762 43.0893 122.91 42.8009 122.91 42.39V42.3034C122.91 41.2364 122.618 40.4072 122.034 39.816C121.457 39.2248 120.581 38.9292 119.406 38.9292C118.188 38.9292 117.232 39.196 116.54 39.7295C115.848 40.263 115.361 40.8326 115.08 41.4383L112.658 40.5731C113.09 39.5637 113.667 38.7778 114.388 38.2154C115.116 37.6458 115.909 37.2493 116.767 37.0258C117.633 36.7951 118.483 36.6797 119.32 36.6797C119.853 36.6797 120.466 36.7446 121.158 36.8744C121.858 36.9969 122.532 37.2529 123.181 37.6422C123.837 38.0316 124.381 38.6192 124.814 39.405C125.246 40.1909 125.463 41.2436 125.463 42.563V53.5077H122.91V51.2582H122.781C122.607 51.6187 122.319 52.0044 121.915 52.4154C121.512 52.8264 120.974 53.176 120.304 53.4644C119.633 53.7528 118.815 53.897 117.849 53.897ZM118.238 51.6043C119.248 51.6043 120.098 51.406 120.791 51.0094C121.49 50.6129 122.016 50.101 122.37 49.4737C122.73 48.8465 122.91 48.1868 122.91 47.4946V45.1586C122.802 45.2884 122.564 45.4073 122.197 45.5155C121.836 45.6164 121.418 45.7065 120.942 45.7858C120.473 45.8579 120.015 45.9228 119.568 45.9805C119.129 46.031 118.772 46.0742 118.498 46.1103C117.834 46.1968 117.214 46.3374 116.638 46.5321C116.068 46.7195 115.607 47.0043 115.253 47.3865C114.907 47.7614 114.734 48.2733 114.734 48.9222C114.734 49.809 115.062 50.4795 115.718 50.9337C116.382 51.3808 117.222 51.6043 118.238 51.6043Z" fill="#3A3285"/>
<path d="M87.4274 28.1629C86.5301 6.92239 46.6185 2.49831 38.9085 23.5587L38.0972 28.1629H16.0205C16.5739 -0.20484 67.086 -11.1177 86.2776 14.2133C89.4959 18.4594 91.1802 23.2743 91.3602 28.1629H87.4274Z" fill="#3A3285"/>
<path d="M85.0341 28.1628C84.6768 17.1619 63.2475 16.947 62.8849 28.1628H50.8955C51.0943 12.4493 81.9233 10.3457 84.8622 26.4664L85.0261 28.1628H85.0314H85.0341Z" fill="#3A3285"/>
</g>
<defs>
<clipPath id="clip0_520_6903">
<rect width="130" height="55" fill="white"/>
</clipPath>
</defs>
</svg>
