<svg width="48" height="48" viewBox="0 0 48 48" fill="none" xmlns="http://www.w3.org/2000/svg">
<circle cx="24" cy="24" r="24" fill="#5B52B6"/>
<path d="M24 14C21.38 14 19.25 16.13 19.25 18.75C19.25 21.32 21.26 23.4 23.88 23.49C23.96 23.48 24.04 23.48 24.1 23.49C24.12 23.49 24.13 23.49 24.15 23.49C24.16 23.49 24.16 23.49 24.17 23.49C26.73 23.4 28.74 21.32 28.75 18.75C28.75 16.13 26.62 14 24 14Z" fill="white"/>
<path d="M29.08 26.15C26.29 24.29 21.74 24.29 18.93 26.15C17.66 27 16.96 28.15 16.96 29.38C16.96 30.61 17.66 31.75 18.92 32.59C20.32 33.53 22.16 34 24 34C25.84 34 27.68 33.53 29.08 32.59C30.34 31.74 31.04 30.6 31.04 29.36C31.03 28.13 30.34 26.99 29.08 26.15Z" fill="white"/>
</svg>
