<svg width="8" height="12" viewBox="0 0 8 12" fill="none" xmlns="http://www.w3.org/2000/svg">
<path d="M1.07642 6.63678L5.79309 11.3451C5.87056 11.4232 5.96273 11.4852 6.06428 11.5275C6.16582 11.5698 6.27475 11.5916 6.38476 11.5916C6.49477 11.5916 6.60369 11.5698 6.70524 11.5275C6.80679 11.4852 6.89895 11.4232 6.97642 11.3451C7.13163 11.189 7.21875 10.9778 7.21875 10.7576C7.21875 10.5375 7.13163 10.3263 6.97642 10.1701L2.85142 6.00345L6.97642 1.87845C7.13163 1.72231 7.21875 1.5111 7.21875 1.29095C7.21875 1.07079 7.13163 0.859584 6.97642 0.703448C6.89924 0.624708 6.80721 0.562066 6.70564 0.519153C6.60408 0.476238 6.49501 0.453907 6.38476 0.453449C6.2745 0.453907 6.16543 0.476238 6.06387 0.519153C5.96231 0.562066 5.87027 0.624708 5.79309 0.703448L1.07642 5.41178C0.991835 5.48982 0.924328 5.58453 0.878155 5.68994C0.831983 5.79536 0.808146 5.9092 0.808146 6.02428C0.808146 6.13937 0.831983 6.2532 0.878155 6.35862C0.924328 6.46404 0.991835 6.55875 1.07642 6.63678Z" fill="#191C1D"/>
</svg>
